<svg id="Layer_1" enable-background="new 0 0 512 512" viewBox="0 0 512 512" xmlns="http://www.w3.org/2000/svg" fill="#fff"><path d="m333.863 462.07c1.397 4.177-.855 8.696-5.031 10.094-37.332 12.576-77.923 15.147-116.583 7.673l1.552 1.552c3.124 3.124 3.124 8.189 0 11.312-3.124 3.124-8.189 3.124-11.312 0l-22.444-22.444c-4.525-4.525-2.128-12.174 3.978-13.478l30.275-8.112c4.263-1.139 8.643 1.393 9.781 5.656 1.139 4.263-1.394 8.642-5.656 9.781l-1.433.384c35.496 6.584 72.55 4.081 106.779-7.45 4.176-1.397 8.696.855 10.094 5.032zm130.241-168.487c-1.139-4.263-5.519-6.795-9.781-5.656-4.263 1.139-6.795 5.518-5.656 9.781l8.112 30.276c1.304 6.105 8.953 8.502 13.478 3.977l22.444-22.444c3.124-3.124 3.124-8.189 0-11.312-3.124-3.124-8.189-3.124-11.312 0l-1.556 1.556c7.483-38.674 4.913-79.245-7.668-116.592-1.398-4.177-5.917-6.429-10.094-5.031s-6.429 5.917-5.031 10.094c11.537 34.245 14.034 71.283 7.451 106.795zm-275.877-238.62c34.233-11.534 71.291-14.036 106.791-7.45l-1.434.384c-4.263 1.139-6.795 5.518-5.656 9.781s5.519 6.795 9.781 5.656l30.276-8.112c6.104-1.305 8.502-8.953 3.977-13.478l-22.445-22.444c-3.124-3.124-8.189-3.124-11.312 0-3.124 3.124-3.124 8.189 0 11.312l1.551 1.551c-38.663-7.475-79.257-4.905-116.591 7.674-4.177 1.398-6.429 5.917-5.031 10.094 1.397 4.177 5.916 6.43 10.093 5.032zm-104.189 334.693c-12.269 0-22.214 9.946-22.214 22.215s9.946 22.214 22.214 22.214 22.214-9.946 22.214-22.214c0-12.269-9.945-22.215-22.214-22.215zm411.96 38.361c0 18.787-7.615 35.796-19.927 48.108-26.423 26.423-69.792 26.423-96.216 0-12.312-12.312-19.927-29.321-19.927-48.108 0-15.924 5.474-30.57 14.639-42.162l-43.826-43.803-5.224 5.224-18.458-8.198c-8.788 5.412-18.38 9.392-28.421 11.781l-7.25 18.837h-30.774l-7.252-18.841c-10.039-2.389-19.626-6.369-28.413-11.779l-18.464 8.2-5.224-5.224-43.827 43.803c9.166 11.592 14.639 26.237 14.639 42.162 0 18.787-7.615 35.796-19.927 48.108-26.423 26.423-69.792 26.423-96.216 0-12.312-12.312-19.927-29.321-19.927-48.108 0-37.573 30.461-68.035 68.035-68.035 15.896 0 30.52 5.453 42.102 14.59l43.809-43.832-5.224-5.224 8.198-18.457c-5.413-8.788-9.392-18.38-11.781-28.421l-18.837-7.25v-30.774l18.84-7.252c2.389-10.039 6.369-19.628 11.78-28.415l-8.199-18.461 5.224-5.224-43.757-43.774c-26.622 20.995-65.738 19.236-90.261-5.287-12.312-12.312-19.927-29.321-19.927-48.108 0-37.573 30.461-68.035 68.035-68.035s68.035 30.461 68.035 68.035c0 15.895-5.452 30.517-14.587 42.098l43.774 43.757 5.224-5.224 18.463 8.2c8.787-5.41 18.375-9.39 28.413-11.779l7.253-18.841h30.774l7.252 18.841c10.039 2.389 19.626 6.369 28.414 11.779l18.463-8.2 5.224 5.224 43.774-43.758c-9.135-11.582-14.586-26.203-14.586-42.098 0-37.573 30.461-68.035 68.036-68.035 37.573 0 68.035 30.461 68.035 68.035 0 18.787-7.615 35.796-19.927 48.108-24.522 24.522-63.638 26.281-90.261 5.287l-43.757 43.773 5.225 5.224-8.198 18.458c5.413 8.788 9.393 18.38 11.782 28.421l18.837 7.25v30.774l-18.841 7.252c-2.389 10.039-6.37 19.626-11.779 28.413l8.2 18.463-5.224 5.224 43.809 43.833c11.582-9.136 26.205-14.59 42.102-14.59 37.567.001 68.029 30.462 68.029 68.035zm-109.078-303.227c6.32-16.509 22.311-28.232 41.043-28.232 18.731 0 34.722 11.723 41.043 28.232 10.358-10.445 16.756-24.823 16.756-40.697 0-31.922-25.877-57.8-57.799-57.8-31.923 0-57.8 25.877-57.8 57.8 0 15.873 6.399 30.252 16.757 40.697zm-245.083-40.698c0-31.922-25.876-57.8-57.799-57.8s-57.799 25.877-57.799 57.8c0 15.873 6.398 30.252 16.756 40.697 6.321-16.509 22.312-28.232 41.043-28.232s34.722 11.723 41.042 28.232c10.359-10.445 16.757-24.823 16.757-40.697zm-57.799 286.126c-31.923 0-57.799 25.877-57.799 57.8 0 15.873 6.398 30.252 16.756 40.697 6.321-16.509 22.312-28.232 41.043-28.232s34.722 11.723 41.042 28.232c10.358-10.445 16.756-24.823 16.756-40.697.001-31.923-25.876-57.8-57.798-57.8zm233.837-114.218c0-34.173-27.702-61.875-61.875-61.875-34.172 0-61.875 27.702-61.875 61.875 0 18.344 7.985 34.82 20.666 46.151 5.525-17.498 21.885-30.184 41.209-30.184s35.684 12.686 41.208 30.184c12.682-11.331 20.667-27.808 20.667-46.151zm167.887 172.017c0-31.922-25.877-57.8-57.799-57.8-31.923 0-57.8 25.877-57.8 57.8 0 15.873 6.399 30.252 16.757 40.697 6.32-16.509 22.311-28.232 41.043-28.232 18.731 0 34.722 11.723 41.043 28.232 10.358-10.445 16.756-24.823 16.756-40.697zm-401.724-382.286c-12.269 0-22.214 9.946-22.214 22.215s9.946 22.214 22.214 22.214 22.214-9.946 22.214-22.214c0-12.269-9.945-22.215-22.214-22.215zm-36.142 172.69c1.139 4.263 5.519 6.795 9.781 5.656 4.263-1.139 6.795-5.518 5.656-9.781l-8.112-30.276c-1.304-6.105-8.953-8.502-13.478-3.977l-22.444 22.444c-3.124 3.124-3.124 8.189 0 11.312 3.124 3.124 8.188 3.124 11.312 0l1.564-1.564c-7.495 38.667-4.918 79.26 7.663 116.6 1.398 4.177 5.917 6.429 10.094 5.031 4.176-1.398 6.429-5.917 5.031-10.094-11.527-34.212-14.04-71.346-7.463-106.828zm208.105-.147c-12.065 0-21.847 9.781-21.847 21.846s9.781 21.847 21.847 21.847 21.846-9.781 21.846-21.847c0-12.065-9.781-21.846-21.846-21.846zm171.962-128.114c12.269 0 22.214-9.946 22.214-22.214 0-12.269-9.945-22.215-22.214-22.215s-22.215 9.946-22.215 22.215c.001 12.268 9.946 22.214 22.215 22.214zm0 299.496c-12.269 0-22.215 9.946-22.215 22.215s9.946 22.214 22.215 22.214 22.214-9.946 22.214-22.214c0-12.269-9.945-22.215-22.214-22.215z"/></svg>