<svg id="Layer_1" viewBox="0 0 512 512" xmlns="http://www.w3.org/2000/svg" data-name="Layer 1" fill="#223F97"><path d="m288.171 325.015h-27.4c-3.23 0-5.979-1.935-7.07-4.975s-.199-6.281 2.294-8.334c1.58-1.302 2.96-2.906 4.044-4.783 4.858-8.414 1.975-19.176-6.44-24.034-8.415-4.859-19.175-1.975-24.032 6.44-4.363 7.558-2.482 17.008 4.042 22.374 2.495 2.052 3.39 5.295 2.3 8.336-1.091 3.041-3.841 4.977-7.071 4.977h-27.4c-5.508 0-10-4.492-10-10v-29.775c0-3.229-1.935-5.979-4.975-7.07s-6.281-.199-8.334 2.294c-1.302 1.581-2.905 2.96-4.783 4.044-8.415 4.859-19.175 1.976-24.034-6.439-4.858-8.415-1.975-19.175 6.44-24.033 7.558-4.364 17.008-2.482 22.374 4.042 2.052 2.495 5.295 3.39 8.336 2.3s4.977-3.841 4.977-7.071v-29.778c0-5.508 4.492-10 10-10h86.733c5.508 0 10 4.492 10 10v29.778c0 3.23 1.937 5.981 4.978 7.071s6.284.195 8.335-2.3c5.365-6.523 14.816-8.406 22.374-4.042 8.415 4.858 11.298 15.618 6.44 24.033s-15.619 11.297-24.034 6.439c-1.877-1.084-3.481-2.464-4.783-4.044-2.054-2.492-5.295-3.385-8.334-2.294s-4.975 3.84-4.975 7.07v29.775c0 5.508-4.492 10-10 10zm22.473-127.254c2.302 2.347 5.668 2.967 8.655 1.593s4.707-4.333 4.422-7.608c-.18-2.077.001-4.223.594-6.349 2.653-9.529 12.528-15.104 22.058-12.451 9.529 2.653 15.103 12.528 12.449 22.058-2.383 8.559-10.592 13.927-19.142 13.01-3.27-.351-6.265 1.31-7.698 4.27s-.879 6.338 1.423 8.686l26.501 27.021c3.854 3.929 10.199 3.995 14.132.146l71.63-70.08c1.97-1.927 2.978-4.289 3.006-7.045.029-2.756-.93-5.138-2.86-7.105l-75.734-77.222c-3.856-3.932-10.209-3.994-14.141-.137l-21.771 21.352c-2.348 2.303-5.727 2.856-8.686 1.423-2.96-1.433-4.621-4.428-4.27-7.698.917-8.55-4.451-16.76-13.01-19.143-9.529-2.653-19.405 2.921-22.058 12.45-2.653 9.53 2.922 19.405 12.451 22.058 2.126.592 4.272.774 6.349.594 3.275-.284 6.234 1.436 7.608 4.422s.761 6.361-1.593 8.655l-26.625 25.95c-1.976 1.926-2.988 4.289-3.019 7.048s.927 5.144 2.86 7.115l26.468 26.988zm-171.982-10.941c1.969 1.929 4.351 2.886 7.107 2.856l100.204-1.096c5.503-.06 9.943-4.593 9.89-10.096l-.368-37.846c-.032-3.288-2.03-6.069-5.136-7.148s-6.398-.137-8.462 2.424c-5.397 6.694-14.998 8.703-22.735 4.336-8.615-4.862-11.656-15.786-6.794-24.4 4.862-8.615 15.788-11.655 24.402-6.793 1.923 1.085 3.568 2.473 4.909 4.069 2.115 2.517 5.423 3.394 8.507 2.253 3.084-1.14 5.026-3.958 4.994-7.246l-.368-37.799c-.027-2.76-1.036-5.124-3.009-7.053s-4.36-2.884-7.119-2.849l-37.176.477c-3.287.042-6.106-1.91-7.246-4.994s-.264-6.392 2.253-8.507c1.596-1.341 2.985-2.987 4.07-4.909 4.862-8.614 1.822-19.539-6.793-24.402-8.614-4.862-19.538-1.82-24.401 6.794-4.367 7.737-2.358 17.337 4.336 22.735 2.561 2.064 3.504 5.356 2.424 8.463-1.079 3.107-3.86 5.104-7.148 5.136l-30.492.297c-5.507.054-9.956 4.589-9.902 10.096l1.052 108.156c.027 2.756 1.033 5.118 3.002 7.046zm317.535 34.901c-8.807 20.217-20.456 43.303-29.243 58.706 10.035 15.526-3.614 38.191-18.021 54.897-8.513 9.871-18.235 18.787-25.171 25.147-2.189 2.007-4.104 3.763-5.393 4.999-2.381 2.291-6.17 2.218-8.461-.164-2.291-2.381-2.217-6.17.164-8.461 1.665-1.596 3.492-3.271 5.581-5.186 6.758-6.198 16.233-14.887 24.233-24.163 12.095-14.024 25.146-34.16 14.736-43.139-7.531-6.496-17.948-5.639-30.512 6.692-20.003 19.633-39.398 35.879-61.446 53.736-13.486 11.733-24.43 25.395-26.329 53.998-.393 5.925-1.723 21.406-4.815 36.23h79.452c.765 0 1.521.036 2.269.105 3.995-7.137 9.404-13.867 16.718-20.507 20.321-18.447 41.656-22.554 58.091-65.84l45.733-122.042c3.358-9.799 6.604-21.558 7.218-27.197-6.758-16.315-27.536-17.447-44.803 22.191zm-72.281 238.234v36.264h-114.932v-36.264c0-7.119 5.824-12.943 12.943-12.943h89.045c7.119 0 12.944 5.824 12.944 12.943zm-78.568 12.451c0-6.313-5.148-11.462-11.462-11.462s-11.462 5.149-11.462 11.462 5.149 11.462 11.462 11.462 11.462-5.149 11.462-11.462zm-164.321-37.395h79.452c-3.092-14.824-4.422-30.305-4.815-36.23-1.899-28.603-12.843-42.265-26.329-53.998-22.048-17.857-41.443-34.103-61.446-53.736-12.564-12.331-22.981-13.187-30.512-6.692-10.411 8.978 2.641 29.115 14.736 43.139 8 9.276 17.475 17.965 24.233 24.163 2.088 1.915 3.915 3.591 5.581 5.186 2.381 2.291 2.455 6.079.164 8.461-2.291 2.381-6.08 2.455-8.461.164-1.289-1.236-3.204-2.991-5.393-4.999-6.935-6.36-16.658-15.276-25.171-25.147-14.408-16.706-28.056-39.371-18.021-54.897-8.786-15.403-20.436-38.489-29.243-58.706-17.267-39.638-38.045-38.505-44.803-22.191.614 5.639 3.859 17.398 7.218 27.197l45.733 122.042c16.435 43.286 37.77 47.393 58.091 65.84 7.314 6.64 12.723 13.37 16.718 20.507.748-.068 1.504-.105 2.269-.105zm101.988 24.943v36.264h-114.932v-36.264c0-7.119 5.824-12.943 12.944-12.943h89.045c7.119 0 12.943 5.824 12.943 12.943zm-13.441 12.451c0-6.313-5.148-11.462-11.462-11.462s-11.462 5.149-11.462 11.462 5.149 11.462 11.462 11.462 11.462-5.149 11.462-11.462z" fill-rule="evenodd"/></svg>