<svg id="svg45829" height="512" viewBox="0 0 16.933333 16.933334" width="512" xmlns="http://www.w3.org/2000/svg" xmlns:svg="http://www.w3.org/2000/svg" fill="#223F97"><g id="layer1" transform="translate(0 -280.067)"><path id="path33245" d="m8.4676999 280.59685c-2.0426204 0-3.7052012 1.66051-3.7052012 3.70313s1.6625808 3.7052 3.7052012 3.7052c2.0426171 0 3.7031321-1.66258 3.7031321-3.7052s-1.660515-3.70313-3.7031321-3.70313zm-.00103 1.05626c.1323208 0 .2645834.0881.2645834.26459v.56999c.4540911.11874.7927155.53121.7927155 1.02113a.2646485.2646485 0 1 1 -.5291667 0c0-.2954-.2317115-.52969-.5270976-.52969-.2953941 0-.5291667.23429-.5291667.52969 0 .29539.2337726.52916.5291667.52916.5813689 0 1.0562643.47697 1.0562643 1.05834 0 .48991-.3386244.90238-.7927155 1.02112v.56483c0 .35286-.5291667.35286-.5291667 0v-.56534c-.4535408-.11943-.7932341-.5314-.7932341-1.02061a.26484265.26484265 0 0 1 .5296853 0c0 .29539.2337726.52968.5291667.52968.2953861 0 .5270976-.23429.5270976-.52968s-.2317115-.52917-.5270976-.52917c-.5813743 0-1.058852-.47696-1.058852-1.05833 0-.48922.3396933-.90119.7932341-1.02062v-.5705c0-.17644.1322546-.26459.2645833-.26459zm6.7086341 5.61c-.32109-.00001-.642966.1231-.886767.3669-.558448.55845-1.116901 1.1169-1.675349 1.67535.21989.30449.351398.67685.351398 1.08055 0 1.02148-.830088 1.85157-1.851567 1.85157h-2.8840632c-.3843602.0345-.3843602-.56161 0-.5271h2.8840612c.737473 0 1.322401-.58699 1.322401-1.32447 0-.25957-.07574-.49757-.202571-.69969-.233312-.36842-.643506-.61545-1.11983-.6227l-5.5567657.00053c-1.1241722.0001-1.7484407.58127-2.271178 1.10277l3.6736761 3.67368c.05679-.009.1167739-.015.1855179-.015h4.4979167c.909111 0 1.668891-.44894 2.207101-1.22835.60607-.87769 1.740889-2.51991 2.24224-3.23081.182481-.25875.299326-.55499.310576-.86299.01119-.30801-.0953-.62862-.340032-.87333-.2438-.2438-.565687-.3669-.886767-.36691zm-12.7940535 2.85822c-.067612-.00008-.1350645.0255-.1865524.077l-1.58749994 1.58802c-.103976.10344-.103976.27172 0 .37517l4.23436784 4.2323c.1032087.1026.2698936.1026.3731022 0l1.5875-1.58802c.1026002-.10321.1026002-.2699 0-.3731l-4.2343652-4.23437c-.051173-.0512-.1189408-.0769-.1865525-.077z" font-variant-ligatures="normal" font-variant-position="normal" font-variant-caps="normal" font-variant-numeric="normal" font-variant-alternates="normal" font-feature-settings="normal" text-indent="0" text-align="start" text-decoration-line="none" text-decoration-style="solid" text-decoration-color="rgb(0,0,0)" text-transform="none" text-orientation="mixed" white-space="normal" shape-padding="0" isolation="auto" mix-blend-mode="normal" solid-color="rgb(0,0,0)" solid-opacity="1" vector-effect="none"/></g></svg>