<?xml version="1.0" encoding="UTF-8"?>
<svg xmlns="http://www.w3.org/2000/svg" viewBox="0 0 64 64" width="512" height="512" fill="#fff"><g id="Icon"><path d="M5,38v4a3.00328,3.00328,0,0,0,3,3H56a3.00328,3.00328,0,0,0,3-3V38Zm27,5a1.5,1.5,0,1,1,1.5-1.5A1.5,1.5,0,0,1,32,43ZM43,53a3.00328,3.00328,0,0,1-3,3H24a3,3,0,0,1,0-6h1.11493l.36725-3H38.517l.36749,3H40A3.00328,3.00328,0,0,1,43,53ZM59,36V11a3.00328,3.00328,0,0,0-3-3H8a3.00328,3.00328,0,0,0-3,3V36ZM48.2002,29a.99943.99943,0,0,1-1,1h-6.334a.99943.99943,0,0,1-1-1,7.81822,7.81822,0,0,0-1.64978-4.80237l5.90674-5.90674A16.115,16.115,0,0,1,48.2002,29ZM33,12.85046a16.11,16.11,0,0,1,9.70911,4.02637L37.9502,21.63574l.8955-2.68652a2.99984,2.99984,0,1,0-5.6914-1.89844L33,17.51361Zm2.05176,4.83313a.99964.99964,0,1,1,1.89648.63282L33.839,27.6452a2.99792,2.99792,0,1,1-1.89734-.63244ZM31,12.85046v8.35413a7.81851,7.81851,0,0,0-3.80231,1.57874l-5.907-5.90638A16.10978,16.10978,0,0,1,31,12.85046ZM19.87671,18.291l5.90686,5.90631A7.81775,7.81775,0,0,0,24.1333,29a.99974.99974,0,0,1-1,1H16.7998a.99974.99974,0,0,1-1-1A16.11545,16.11545,0,0,1,19.87671,18.291Z"/></g></svg>
