<svg id="Layer_1" enable-background="new 0 0 512 512" viewBox="0 0 512 512" xmlns="http://www.w3.org/2000/svg" fill="#fff"><path clip-rule="evenodd" d="m211.976 455.325-44.292-52.167c-1.777-2.093-.292-5.299 2.452-5.299h20.629v-51.811h47.326v51.811h20.629c2.744 0 4.23 3.206 2.452 5.299l-44.292 52.167c-1.284 1.513-3.621 1.51-4.904 0zm279.527-295.651-72.916-126.294c-5.995-10.384-16.847-16.649-28.836-16.649-11.99 0-22.842 6.265-28.837 16.649l-72.916 126.294c-5.995 10.383-5.995 22.914 0 33.298 5.995 10.383 16.847 16.649 28.836 16.649h145.833c11.989 0 22.841-6.266 28.836-16.649 5.996-10.384 5.996-22.915 0-33.298zm-103.956-94.924h4.407c4.97 0 8.891 4.065 8.711 9.031l-2.204 61.019c-.169 4.688-4.021 8.403-8.711 8.403-4.691 0-8.543-3.715-8.712-8.403l-2.204-61.019c-.177-4.966 3.744-9.031 8.713-9.031zm2.204 120.722c-6.168 0-11.167-4.999-11.167-11.167 0-6.167 5-11.167 11.167-11.167s11.167 5 11.167 11.167c0 6.168-5 11.167-11.167 11.167zm-328.686 231.042-44.292-52.167c-1.778-2.093-.292-5.299 2.452-5.299h20.629v-101.111c0-3.536 2.898-6.434 6.435-6.434h34.457c3.536 0 6.434 2.891 6.434 6.434v101.111h20.629c2.744 0 4.23 3.206 2.452 5.299l-44.291 52.167c-1.285 1.513-3.622 1.511-4.905 0zm301.823 77.621-44.292-52.167c-1.777-2.094-.291-5.299 2.452-5.299h20.629v-178.732c0-3.536 2.897-6.434 6.435-6.434h34.457c3.537 0 6.434 2.891 6.434 6.434v178.732h20.63c2.744 0 4.23 3.206 2.452 5.299l-44.292 52.167c-1.286 1.513-3.623 1.511-4.905 0zm-174.562-298.756c-3.124-3.124-3.124-8.189 0-11.312 3.124-3.124 8.189-3.124 11.312 0l14.79 14.79 14.79-14.79c3.124-3.124 8.189-3.124 11.312 0 3.124 3.124 3.124 8.189 0 11.312l-14.79 14.79 14.79 14.79c3.124 3.124 3.124 8.189 0 11.312-3.124 3.124-8.189 3.124-11.312 0l-14.79-14.79-14.79 14.79c-3.124 3.124-8.189 3.124-11.312 0-3.124-3.124-3.124-8.189 0-11.312l14.79-14.79zm128.508 30.241c-17.705 0-33.84-9.316-42.693-24.649s-8.853-33.964 0-49.298l18.787-32.539-5.205-5.204-19.46 8.644c-9.266-5.707-19.379-9.903-29.966-12.422l-7.645-19.861h-32.447l-7.646 19.866c-10.584 2.519-20.693 6.715-29.958 12.42l-19.467-8.646-22.944 22.943 8.644 19.461c-5.707 9.266-9.903 19.379-12.422 29.966l-19.861 7.644v32.447l19.864 7.646c2.52 10.585 6.716 20.696 12.421 29.96l-8.645 19.465 22.944 22.944 19.467-8.646c9.265 5.704 19.374 9.901 29.958 12.42l7.647 19.866h32.446l7.647-19.866c10.584-2.519 20.693-6.715 29.958-12.42l19.467 8.646 22.944-22.943-8.644-19.461c5.707-9.266 9.903-19.379 12.422-29.966l19.861-7.644v-.772h-17.474zm-102.405 41.136c-31.255 0-56.587-25.332-56.587-56.587s25.332-56.587 56.587-56.587 56.587 25.332 56.587 56.587-25.332 56.587-56.587 56.587z" fill-rule="evenodd"/></svg>