<svg id="Layer_1" enable-background="new 0 0 32 32" height="512" viewBox="0 0 32 32" width="512" xmlns="http://www.w3.org/2000/svg"  fill="#fff"><path d="m8.354 12.7c3.173 0 5.854-1.374 5.854-3v-2.099c-1.193 1.146-3.342 1.899-5.854 1.899s-4.661-.753-5.854-1.899v2.099c0 1.626 2.681 3 5.854 3z"/><path d="m8.354 16.9c3.173 0 5.854-1.374 5.854-3v-2.099c-1.192 1.146-3.342 1.899-5.854 1.899s-4.661-.753-5.854-1.899v2.099c0 1.626 2.681 3 5.854 3z"/><path d="m8.354 25.3c3.173 0 5.854-1.374 5.854-3v-2.1c-1.192 1.146-3.342 1.899-5.854 1.899s-4.661-.753-5.854-1.899v2.1c0 1.626 2.681 3 5.854 3z"/><path d="m8.354 29.5c3.173 0 5.854-1.374 5.854-3v-2.099c-1.192 1.146-3.342 1.899-5.854 1.899s-4.661-.753-5.854-1.899v2.099c0 1.626 2.681 3 5.854 3z"/><path d="m8.354 21.1c3.173 0 5.854-1.374 5.854-3v-2.098c-1.192 1.146-3.342 1.899-5.854 1.899s-4.661-.753-5.854-1.899v2.098c0 1.626 2.681 3 5.854 3z"/><path d="m8.354 8.5c3.173 0 5.854-1.374 5.854-3s-2.681-3-5.854-3-5.854 1.374-5.854 3 2.681 3 5.854 3z"/><path d="m17.792 20.2v2.1c0 1.626 2.681 3 5.854 3s5.854-1.374 5.854-3v-2.1c-1.193 1.146-3.342 1.899-5.854 1.899-2.512.001-4.661-.753-5.854-1.899z"/><path d="m26.925 15.643-2.132 2.132c-.316.315-.731.474-1.146.474s-.83-.158-1.146-.474l-2.134-2.133c-1.59.568-2.574 1.494-2.574 2.458 0 1.626 2.681 3 5.854 3s5.854-1.374 5.854-3c-.001-.95-1.007-1.894-2.576-2.457z"/><path d="m23.647 2.5c-.342 0-.621.278-.621.621v10.803c0 .202-.122.385-.309.462s-.401.035-.545-.108l-2.046-2.045c-.239-.242-.639-.24-.878 0-.242.242-.242.636 0 .878l3.959 3.958c.241.241.635.242.878 0l3.958-3.958c.242-.242.242-.636 0-.878-.236-.234-.643-.236-.878 0l-2.045 2.044c-.143.144-.357.186-.545.108-.187-.077-.309-.26-.309-.462v-10.802c.002-.343-.277-.621-.619-.621z"/><path d="m17.792 24.401v2.099c0 1.626 2.681 3 5.854 3s5.854-1.374 5.854-3v-2.099c-1.193 1.146-3.342 1.899-5.854 1.899s-4.661-.753-5.854-1.899z"/></svg>