<svg id="Line" enable-background="new 0 0 62 62" height="512" viewBox="0 0 62 62" width="512" xmlns="http://www.w3.org/2000/svg" fill="#223F97"><g><path d="m20 28h-2c0 1.103-.897 2-2 2s-2-.897-2-2h-2c0 2.206 1.794 4 4 4s4-1.794 4-4z"/><path d="m26 32c2.206 0 4-1.794 4-4h-2c0 1.103-.897 2-2 2s-2-.897-2-2h-2c0 2.206 1.794 4 4 4z"/><path d="m26 38h-2.528c-3.14 0-5.962 1.744-7.366 4.553l1.789.895c1.063-2.126 3.2-3.447 5.577-3.447h2.528z"/><path d="m34 9c0-1.654 1.346-3 3-3s3 1.346 3 3-1.346 3-3 3h-1v4h2v-2.101c2.279-.465 4-2.484 4-4.899 0-2.757-2.243-5-5-5s-5 2.243-5 5v1h2z"/><path d="m36 18h2v2h-2z"/><path d="m56.239 22.175c-.448-1.079-.206-2.309.618-3.133l2.184-2.185-9.898-9.898-1.456 1.455c-.643-2.666-2.262-5.025-4.607-6.582-3.152-2.094-7.07-2.409-10.749-.862-2.946 1.238-5.143 3.873-5.955 7.03h-14.376c-1.868 0-3.427 1.291-3.866 3.024-4.526.252-8.134 4.002-8.134 8.59 0 .291.015.582.044.87l.789 7.763c-.524.791-.833 1.736-.833 2.753 0 2.757 2.243 5 5 5h1v1c0 4.439 2.649 8.264 6.444 10-3.795 1.736-6.444 5.561-6.444 10v5h30v-4h6v-3.089c0-1.165.697-2.206 1.825-2.672 1.079-.449 2.309-.204 3.133.618l2.185 2.184 9.898-9.898-2.184-2.185c-.824-.824-1.066-2.054-.597-3.183.445-1.078 1.486-1.775 2.651-1.775h3.089v-14h-3.089c-1.165 0-2.206-.697-2.672-1.825zm-26.038 25.136c-.21-.113-.428-.212-.645-.311.796-.364 1.541-.819 2.223-1.354 1.053.231 2.133.354 3.221.354 8.271 0 15-6.729 15-15 0-4.557-2.093-8.831-5.617-11.669.416-.507.845-1.031 1.256-1.59 4.001 3.215 6.361 8.1 6.361 13.259 0 9.374-7.626 17-17 17-1.633 0-3.246-.233-4.799-.689zm-13.201.689h1.586l-2.388 2.388-1.28-2.135c.669-.16 1.364-.253 2.082-.253zm3.78 6h.439l1.5 6h-3.439zm.602-2h-.764l-1.068-2.136 1.45-1.45 1.45 1.45zm2.032-4h1.586c.718 0 1.413.093 2.082.253l-1.28 2.135zm16.607-24-.014 2h-6.007v-2zm-.205 4c-.414 1.161-1.514 2-2.816 2s-2.402-.839-2.816-2zm-2.816 4c1.129 0 2.159-.39 2.997-1.023 0 .008.003.015.003.023 0 1.654-1.346 3-3 3h-1v-2.101c.323.066.658.101 1 .101zm-1 5v-1h1c2.757 0 5-2.243 5-5 0-.693-.148-1.374-.423-2.002.269-.613.423-1.287.423-1.998v-3.871c.218-.793.639-1.508 1.154-2.225 3.04 2.46 4.846 6.156 4.846 10.096 0 7.168-5.832 13-13 13-.487 0-.972-.036-1.453-.09 1.531-1.89 2.453-4.293 2.453-6.91zm-7.889-27.534c.418-2.983 2.332-5.532 4.995-6.652 1.288-.542 2.608-.81 3.899-.81 1.766 0 3.475.502 4.968 1.494 2.522 1.675 4.027 4.48 4.027 7.502 0 3.211-1.62 5.183-3.187 7.09-.98 1.193-1.986 2.424-2.543 3.91h-6.54c-.557-1.487-1.563-2.717-2.544-3.91-1.881-2.291-3.659-4.454-3.075-8.624zm-20.111 3.565v2.969h2v-4c0-1.103.897-2 2-2h14.045c-.288 3.635 1.053 6.067 2.511 8h-6.556c-1.103 0-2-.897-2-2v-2h-2v2c0 2.206 1.794 4 4 4h8.159c.552.686 1.04 1.347 1.397 2.036-.184-.02-.369-.036-.556-.036h-9c-3.309 0-6-2.691-6-6v-2h-2v2c0 1.458.398 2.822 1.082 4h-2.082c-3.519 0-6.432 2.614-6.92 6h-1.08c-.843 0-1.626.23-2.324.6l-.642-6.319c-.023-.221-.034-.444-.034-.667 0-3.44 2.64-6.272 6-6.583zm-3 20.969c-1.654 0-3-1.346-3-3s1.346-3 3-3h1v6zm3 3v-10c0-2.757 2.243-5 5-5h3.726c1.41 1.241 3.253 2 5.274 2h9c.346 0 .679.08 1 .194v2.806c0 1.627.793 3.061 2 3.974v6.026c0 4.963-4.037 9-9 9h-8c-4.963 0-9-4.037-9-9zm0 20c0-3.526 2.043-6.576 5.003-8.052l2.799 4.664 2.257-2.257.881 1.762-1.72 6.883h-9.22zm26 3h-9.22l-1.721-6.883.881-1.762 2.257 2.257 2.799-4.664c2.961 1.476 5.004 4.526 5.004 8.052zm26-24h-1.089c-1.979 0-3.745 1.183-4.52 3.058-.76 1.83-.347 3.916 1.052 5.314l.77.771-7.07 7.07-.771-.77c-1.398-1.398-3.484-1.811-5.358-1.032-1.831.755-3.014 2.522-3.014 4.5v1.089h-4.051c-.209-2.301-1.127-4.398-2.536-6.072.527.044 1.056.072 1.587.072 10.477 0 19-8.523 19-19 0-5.84-2.709-11.359-7.283-14.95.749-1.379 1.283-2.996 1.283-5.05 0-.047-.008-.093-.009-.14.126-.103.266-.188.381-.303l.771-.77 7.07 7.07-.77.771c-1.398 1.398-1.812 3.484-1.032 5.358.755 1.831 2.521 3.014 4.5 3.014h1.089z"/><path d="m60 4h2v2h-2z"/><path d="m56 4h2v2h-2z"/><path d="m52 4h2v2h-2z"/><path d="m60 8h2v2h-2z"/><path d="m56 8h2v2h-2z"/></g></svg>