<svg enable-background="new 0 0 512 512" height="512" viewBox="0 0 512 512" width="512"
    xmlns="http://www.w3.org/2000/svg" fill="#223f97">
    <g id="_x31_357_x2C__Affiliate_Marketing_x2C__Internet_Advertising_x2C__Marketing_Network">
        <g>
            <path
                d="m256 234.333c11.028 0 20-8.972 20-20s-8.972-20-20-20-20 8.972-20 20 8.972 20 20 20z" />
            <path
                d="m256 244.333c-20.218 0-36.667 16.449-36.667 36.667v20h73.333v-20c.001-20.218-16.448-36.667-36.666-36.667z" />
            <path
                d="m466 231c-12.073 0-22.174 8.603-24.497 20h-30.592c-1.242-38.969-16.936-74.349-41.889-100.951l21.681-21.681c4.056 2.692 8.812 4.14 13.79 4.14 6.677 0 12.955-2.6 17.677-7.322 9.748-9.748 9.748-25.608 0-35.356-4.722-4.722-11-7.322-17.677-7.322-6.678 0-12.956 2.6-17.678 7.322-4.723 4.722-7.322 11-7.322 17.678 0 4.979 1.447 9.734 4.14 13.789l-21.682 21.681c-26.601-24.953-61.981-40.647-100.951-41.889v-30.592c11.397-2.323 20-12.424 20-24.497 0-13.785-11.215-25-25-25s-25 11.215-25 25c0 12.073 8.603 22.174 20 24.497v30.592c-38.969 1.242-74.349 16.936-100.951 41.889l-21.684-21.684c6.417-9.702 5.357-22.927-3.18-31.464-4.722-4.722-11-7.322-17.678-7.322s-12.956 2.6-17.678 7.322c-9.747 9.748-9.747 25.608 0 35.356 4.722 4.722 11 7.322 17.678 7.322 4.979 0 9.734-1.447 13.789-4.139l21.681 21.681c-24.953 26.603-40.647 61.982-41.889 100.951h-30.591c-2.323-11.398-12.424-20.001-24.497-20.001-13.785 0-25 11.215-25 25s11.215 25 25 25c12.073 0 22.174-8.603 24.497-20h30.592c1.242 38.97 16.936 74.35 41.889 100.951l-21.681 21.682c-4.055-2.692-8.811-4.14-13.789-4.14-6.678 0-12.956 2.6-17.678 7.322-9.747 9.747-9.747 25.607 0 35.354 4.722 4.723 11 7.323 17.678 7.323s12.956-2.601 17.678-7.323c8.536-8.537 9.596-21.763 3.179-31.464l21.684-21.684c26.603 24.953 61.982 40.646 100.951 41.889v30.592c-11.397 2.323-20 12.424-20 24.497 0 13.785 11.215 25 25 25s25-11.215 25-25c0-12.073-8.603-22.174-20-24.497v-30.592c38.97-1.242 74.35-16.936 100.951-41.89l21.682 21.682c-2.692 4.056-4.14 8.812-4.14 13.79 0 6.677 2.6 12.955 7.322 17.677 4.722 4.723 11 7.323 17.678 7.323 6.677 0 12.955-2.601 17.677-7.323 4.723-4.722 7.323-11 7.323-17.677 0-6.678-2.601-12.956-7.323-17.678-4.722-4.723-11-7.322-17.677-7.322-4.979 0-9.734 1.447-13.79 4.14l-21.682-21.682c24.954-26.602 40.647-61.981 41.89-100.951h30.592c2.323 11.397 12.424 20 24.497 20 13.785 0 25-11.215 25-25s-11.215-24.999-25-24.999zm-305 25c0 2.762-2.239 5-5 5s-5-2.238-5-5c0-57.897 47.103-105 105-105 2.762 0 5 2.239 5 5s-2.238 5-5 5c-52.383 0-95 42.617-95 95zm53.333 55c-2.761 0-5-2.238-5-5v-25c0-19.238 11.703-35.791 28.362-42.922-7.106-5.491-11.695-14.09-11.695-23.745 0-16.542 13.458-30 30-30s30 13.458 30 30c0 9.655-4.589 18.253-11.695 23.744 16.659 7.131 28.362 23.684 28.362 42.922v25c0 2.762-2.238 5-5 5h-83.334zm41.667 50c-2.761 0-5-2.238-5-5s2.239-5 5-5c52.383 0 95-42.617 95-95 0-2.761 2.238-5 5-5s5 2.239 5 5c0 57.897-47.103 105-105 105z" />
            <path d="m316 46h20v20h-20z" />
            <path d="m356 46h20v20h-20z" />
            <path d="m136 446h20v20h-20z" />
            <path d="m176 446h20v20h-20z" />
            <path d="m446 316h20v20h-20z" />
            <path d="m446 356h20v20h-20z" />
            <path d="m46 136h20v20h-20z" />
            <path d="m46 176h20v20h-20z" />
        </g>
    </g>
</svg>