<svg id="Layer_1" enable-background="new 0 0 66 66" height="512" viewBox="0 0 66 66" width="512"
    xmlns="http://www.w3.org/2000/svg" fill="#fff">
    <g>
        <path
            d="m52.4 40.3h.9c6.5 0 11.7-5.3 11.7-11.7 0-6.2-4.9-11.3-11-11.7-.2-8.8-7.4-15.9-16.3-15.9-5.6 0-10.7 2.8-13.7 7.4-1.9-.6-4.5-1.1-6.6-1.1-9 0-16.4 7.4-16.4 16.5 0 7.6 5.2 14.2 12.6 16v4.8c0 1 .4 1.9 1 2.6-.7.5-1.3 1.3-1.5 2.3l-2.4 10.8c-.2 1.1 0 2.3.8 3.2.7.9 1.8 1.4 3 1.4h37c1.2 0 2.3-.5 3-1.4s1-2.1.8-3.2l-2.4-10.8c-.2-.9-.8-1.7-1.5-2.3.6-.7 1-1.6 1-2.6zm-36.8-17.5c0-1 .8-1.8 1.8-1.8h31.1c1 0 1.8.8 1.8 1.8v21.9c0 1-.8 1.8-1.8 1.8h-31.1c-1 0-1.8-.8-1.8-1.8zm37.7 38c.1.5 0 1.1-.4 1.5s-.9.7-1.4.7h-37c-.6 0-1.1-.2-1.4-.7-.4-.4-.5-1-.4-1.5l2.4-10.8c.2-.8.9-1.4 1.8-1.4h32.2c.9 0 1.6.6 1.8 1.4z" />
        <path d="m20.4 51.5c0-.6-.4-1-1-1h-1c-.6 0-1 .4-1 1s.4 1 1 1h1c.6 0 1-.4 1-1z" />
        <path d="m23.3 52.5h20.2c.6 0 1-.4 1-1s-.4-1-1-1h-20.2c-.6 0-1 .4-1 1s.4 1 1 1z" />
        <path d="m48.6 51.5c0-.6-.4-1-1-1h-1c-.6 0-1 .4-1 1s.4 1 1 1h1c.5 0 1-.4 1-1z" />
        <path d="m18.4 54.7h-1c-.6 0-1 .4-1 1s.4 1 1 1h1c.6 0 1-.4 1-1s-.5-1-1-1z" />
        <path d="m22.5 56.7h21.9c.6 0 1-.4 1-1s-.4-1-1-1h-21.9c-.6 0-1 .4-1 1s.5 1 1 1z" />
        <path d="m48.6 56.7c.6 0 1-.4 1-1s-.4-1-1-1h-1c-.6 0-1 .4-1 1s.4 1 1 1z" />
        <path d="m17.4 59h-1c-.6 0-1 .4-1 1s.4 1 1 1h1c.6 0 1-.4 1-1s-.4-1-1-1z" />
        <path d="m45.6 59h-24.5c-.6 0-1 .4-1 1s.4 1 1 1h24.5c.6 0 1-.4 1-1s-.5-1-1-1z" />
        <path d="m49.6 59h-1c-.6 0-1 .4-1 1s.4 1 1 1h1c.6 0 1-.4 1-1s-.5-1-1-1z" />
        <path
            d="m25.2 29.2h4.1c.3 0 .5-.1.7-.3s.3-.4.3-.7c0-2.8-2.3-5.1-5.1-5.1-.6 0-1 .4-1 1v4.1c0 .5.4 1 1 1zm1-4c.9.3 1.7 1 2 2h-2z" />
        <path
            d="m27.7 30.8c0 1.4-.5 2.7-1.5 3.6-1 1-2.2 1.5-3.6 1.5-2.8 0-5.1-2.3-5.1-5.1 0-1.4.6-2.7 1.5-3.6s2.2-1.5 3.6-1.5c.3 0 .5.1.7.3s.3.5.3.7v3.1h3.1c.5 0 1 .4 1 1z" />
        <path
            d="m47.6 26.6h-4.7c-.6 0-1 .5-1 1v3.7h-3.7c-.6 0-1 .5-1 1v3h-3.7c-.6 0-1 .5-1 1v2h-3.7c-.6 0-1 .4-1 1v4.1c0 .5.4 1 1 1h18.7c.6 0 1-.5 1-1v-15.8c.1-.6-.4-1-.9-1zm-15 15.8h-2.7v-2.1h2.7zm9.3 0h-2.7v-9.1h2.7z" />
        <path
            d="m31.5 33.8c.3 0 .5-.1.7-.3l5.6-5.6v.5c0 .6.4 1 1 1s1-.4 1-1v-2.9c0-.6-.4-1-1-1h-2.9c-.6 0-1 .4-1 1s.4 1 1 1h.5l-5.6 5.6c-.4.4-.4 1 0 1.4.1.2.4.3.7.3z" />
        <path d="m18.9 40.1h3.2c.6 0 1-.4 1-1s-.4-1-1-1h-3.2c-.6 0-1 .4-1 1s.4 1 1 1z" />
        <path d="m24.7 42.4h-5.8c-.6 0-1 .4-1 1s.4 1 1 1h5.8c.6 0 1-.4 1-1s-.4-1-1-1z" />
    </g>
</svg>