<svg id="Layer_1" viewBox="0 0 512 512" xmlns="http://www.w3.org/2000/svg" data-name="Layer 1"
    fill="#223f97">
    <path
        d="m150.636 67.513-29.289-29.289c90.519-56.1 208.433-50.448 293.444 16.961l26.871-26.87 2.214 42.785 2.186 42.783-42.782-2.186-42.78-2.218 25.7-25.679c-68.806-52.163-161.744-57.583-235.564-16.287zm323.171 53.827-29.319 29.319a216.156 216.156 0 0 1 -15.008 233.816l-25.909-25.908-2.186 42.782-2.214 42.783 42.782-2.186 42.782-2.215-26.608-26.608c66.156-84.894 71.373-201.817 15.68-291.783zm-391.279 6.15 25.938 25.937 2.215-42.782 2.185-42.783-42.782 2.215-42.784 2.186 26.58 26.579c-67.058 86.031-71.517 205.052-13.38 295.458l29.2-29.2a216.045 216.045 0 0 1 12.828-237.61zm46.688 303.236 24.947-24.918-42.783-2.215-42.78-2.185 2.185 42.782 2.215 42.782 27.541-27.54c84.749 64.931 200.768 69.711 290.122 14.339l-29.318-29.319a216.028 216.028 0 0 1 -232.129-13.726zm126.773-257.219a82.491 82.491 0 0 0 -58.315 140.82c.582.583 1.165 1.137 1.748 1.691l.146-.9c1.515-10.55 6.033-20.254 12.969-27.191a35.986 35.986 0 0 1 25.963-10.845h1.662a39.235 39.235 0 1 1 31.649 0h1.69a35.87 35.87 0 0 1 25.938 10.841c6.936 6.937 11.482 16.641 13 27.191l.146.9c.583-.554 1.165-1.108 1.748-1.691a82.49 82.49 0 0 0 -58.345-140.82zm24.86 67.671a24.876 24.876 0 1 0 -7.286 17.573 24.709 24.709 0 0 0 7.286-17.573zm8.422 56.916a21.907 21.907 0 0 0 -15.767-6.615h-35a21.808 21.808 0 0 0 -15.766 6.615c-4.751 4.722-7.869 11.541-8.947 19.06l-1.282 8.947a82.566 82.566 0 0 0 86.992 0l-1.282-8.947c-1.079-7.519-4.198-14.338-8.948-19.06zm85.536-14.251a121.223 121.223 0 0 1 -15.126 36.457l7 11.686 8.509 14.251a150.358 150.358 0 0 1 -28.939 28.94l-14.251-8.508-11.691-6.969a121.933 121.933 0 0 1 -36.459 15.1l-3.322 13.173-4.051 16.116a150.5 150.5 0 0 1 -40.946 0l-4.051-16.116-3.322-13.173a121.223 121.223 0 0 1 -36.458-15.126l-11.686 7-14.251 8.51a149.577 149.577 0 0 1 -28.94-28.94l8.51-14.251 6.967-11.693a121.933 121.933 0 0 1 -15.1-36.459l-13.2-3.32-16.087-4.051a150.5 150.5 0 0 1 0-40.946l16.087-4.051 13.2-3.322a121.933 121.933 0 0 1 15.1-36.459l-6.965-11.686-8.51-14.251a149.577 149.577 0 0 1 28.94-28.94l14.251 8.51 11.686 7a121.223 121.223 0 0 1 36.459-15.126l3.322-13.173 4.051-16.116a150.5 150.5 0 0 1 40.946 0l4.051 16.116 3.322 13.173a121.223 121.223 0 0 1 36.459 15.126l11.686-7 14.251-8.51a151.181 151.181 0 0 1 28.939 28.94l-8.509 14.251-7 11.686a121.223 121.223 0 0 1 15.126 36.459l13.173 3.322 16.116 4.051a150.5 150.5 0 0 1 0 40.946l-16.116 4.051zm-21.916-27.831a96.914 96.914 0 1 0 -28.386 68.488 96.7 96.7 0 0 0 28.386-68.488z"
        fill-rule="evenodd" />
</svg>