<svg height="512" viewBox="0 0 32 32" width="512" xmlns="http://www.w3.org/2000/svg" fill="#223f97">
    <g id="_x30_3">
        <path
            d="m15.9941406 21.996582v-2.574707l-3.2485352-3.1411133c-.4843749-.4819336-.7456054-1.1103515-.7456054-1.7797851s.2612305-1.2983398.7353516-1.7705078c.4731445-.4711915 1.1020507-.7304688 1.7714843-.7304688.6699219 0 1.2988281.2592773 1.7719727.7304688l2.5297852 2.5185547c.0927734-.1411133.2011719-.2734375.3232422-.3955078.4746094-.4711914 1.1035156-.7304688 1.7724609-.7304688.1904297 0 .3779297.0209961.5595703.0620117.1259766-.2783203.2978516-.5336914.5126953-.7470703.1223145-.1218262.2559204-.2280273.3972168-.3207397-1.0993652-2.4263306-3.5366821-4.1172486-6.3737793-4.1172486-3.8659668 0-7 3.1340332-7 7s3.1340332 7 7 7c.1255493 0 .2478638-.0122681.3717651-.0187988-.2373047-.2698975-.3776245-.6212769-.3776245-.9846192z" />
        <path
            d="m19.2792969 25.8911133-2.0093384-2.0014038c-.4146118.0662842-.8366699.1102905-1.2699585.1102905-4.4182739 0-8-3.5817261-8-8s3.5817261-8 8-8c3.2603149 0 6.0599976 1.9532471 7.3062134 4.7509155.1447144-.0255127.291687-.0429077.4418335-.0429077.6699219 0 1.2988281.2592773 1.7724609.7304688l2.8427734 2.8305664c.1327515.1334839.1741333.1799927 1.2433472 2.5135498.2380982-.1850586.3933716-.4662476.3933716-.7825928v-4c0-.4589844-.3125-.8588867-.7578125-.9702148l-1.7451172-.4365234c-.2373047-.8017578-.5585938-1.5756836-.9599609-2.3125l.9267578-1.5444336c.2363281-.3935547.1738281-.8974609-.1503906-1.2216797l-2.828125-2.828125c-.3242188-.3256836-.828125-.3862305-1.2216797-.1503906l-1.5439453.9267578c-.7373047-.4008789-1.5107422-.722168-2.3134766-.9594727l-.4365234-1.7460938c-.1113282-.4448242-.5107422-.7573242-.9697266-.7573242h-4c-.4589844 0-.8583984.3125-.9697266.7573242l-.4365234 1.7460938c-.8017578.2373047-1.5761719.5585938-2.3134766.9594727l-1.5439453-.9267579c-.3935547-.2353516-.8974609-.175293-1.2216797.1503906l-2.828125 2.828125c-.3242188.3242188-.3867188.828125-.1503906 1.2216797l.9267578 1.5444336c-.4013672.7368164-.7226563 1.5107422-.9599609 2.3125l-1.7451172.4365234c-.4453125.1113282-.7578125.5112305-.7578125.9702149v4c0 .4589844.3125.8588867.7578125.9702148l1.7451172.4365234c.2373047.8017578.5585938 1.5756836.9599609 2.3125l-.9267578 1.5444336c-.2363281.3935547-.1738281.8974609.1503906 1.2216797l2.828125 2.828125c.3232422.3251953.828125.3847656 1.2216797.1503906l1.5439453-.9267578c.7373047.4008789 1.5117188.722168 2.3134766.9594727l.4365234 1.7460938c.1113282.4448242.5107422.7573242.9697266.7573242h4c.4589844 0 .8583984-.3125.9697266-.7573242l.4365234-1.7460938c.6921997-.2046509 1.3574219-.4837646 2.0016479-.8104858-1.8989868-.5732422-1.9683227-.6363525-2.128601-.7949829z" />
        <path
            d="m27.6573944 16.9776268-2.8419189-2.8294678-.0014038-.0014038c-.5878906-.5853271-1.5444946-.5853271-2.1324463 0-.4459229.4440308-.5859985 1.2233276-.3554077 1.7693481-.0310669.0453491-.012085-.0441284-.0161133-.0160522l-.3392944-.3378296c-.5879517-.5853882-1.5444946-.5853882-2.1324463 0s-.5879517 1.5377197 0 2.1231689l-4.2649537-4.2463378c-.5879517-.5853882-1.5444946-.5853882-2.1324463 0s-.5879517 1.5377808 0 2.1231689l3.5529785 3.4356079v2.9989014c0 .1326904.0527954.2598877.1472168.3538818l2.8432007 2.8308716c.0771484.0767212 5.9960327 1.8134155 5.9960327 1.8134155.1566162.0224609.3148193-.0300903.4265747-.1413574l3.4459839-4.3446655c.1345825-.1340942.1811523-.3324585.12146-.512146 0 0-2.262146-4.9644775-2.3170166-5.019104z" />
    </g>
</svg>