<svg id="Layer_5" enable-background="new 0 0 64 64" height="512" viewBox="0 0 64 64" width="512"
    xmlns="http://www.w3.org/2000/svg" fill="#fff">
    <g>
        <path
            d="m63.236 15-9.236-4.618v3.618h-7c-1.654 0-3 1.346-3 3v4.071c.331-.042.663-.071 1-.071.339 0 .672.029 1 .07v-4.07c0-.551.449-1 1-1h7v3.618z" />
        <path
            d="m40 8c0-.551.449-1 1-1h8v3.618l9.236-4.618-9.236-4.618v3.618h-8c-1.654 0-3 1.346-3 3v7.4c.738.7 1.405 1.473 2 2.302z" />
        <path
            d="m11 7h8c.551 0 1 .449 1 1v4.604c.642-.312 1.313-.57 2-.795v-3.809c0-1.654-1.346-3-3-3h-8v-3.618l-9.236 4.618 9.236 4.618z" />
        <path
            d="m21.607 43h-4.451c2.417 6.051 8.221 10.029 14.844 10.029s12.427-3.978 14.844-10.029h-4.451c-2.142 3.732-6.067 6.029-10.393 6.029s-8.251-2.297-10.393-6.029z" />
        <path
            d="m53.149 43h-4.183c-2.531 7.222-9.249 12.029-16.966 12.029s-14.435-4.807-16.966-12.029h-4.183c.598 2.128 1.49 4.148 2.698 6.004l.319.49-1.147 2.196 4.619 4.618 2.196-1.147.49.319c2.272 1.479 4.761 2.511 7.396 3.068l.572.121.74 2.359h6.531l.74-2.359.572-.121c2.636-.558 5.125-1.59 7.396-3.068l.49-.319 2.196 1.147 4.619-4.618-1.147-2.196.319-.49c1.209-1.856 2.101-3.876 2.699-6.004z" />
        <path
            d="m54 27c-.417 0-.828.045-1.233.117.147.605.233 1.233.233 1.883h-2c0-3.309-2.691-6-6-6-.83 0-1.645.175-2.397.503.253 1.127.397 2.295.397 3.497h-2c0-7.72-6.28-14-14-14-7.225 0-13.185 5.46-13.91 12.558 3.443 1.265 5.91 4.567 5.91 8.442h-2c0-3.86-3.14-7-7-7s-7 3.14-7 7 3.14 7 7 7h44c3.86 0 7-3.14 7-7s-3.14-7-7-7zm-41 12h-3c-2.757 0-5-2.243-5-5s2.243-5 5-5v2c-1.654 0-3 1.346-3 3s1.346 3 3 3h3zm4 0h-2v-2h2zm4 0h-2v-2h2zm1.636-23.181c.703-.275 1.437-.483 2.183-.621l.362 1.967c-.622.115-1.233.289-1.817.517zm3.364 20.181c-1.105 0-2-.895-2-2s.895-2 2-2 2 .895 2 2-.895 2-2 2zm8 0c-1.105 0-2-.895-2-2s.895-2 2-2 2 .895 2 2-.895 2-2 2zm3-9c0-5.514-4.486-10-10-10v-2c6.617 0 12 5.383 12 12zm5 9c-1.105 0-2-.895-2-2s.895-2 2-2 2 .895 2 2-.895 2-2 2z" />
    </g>
</svg>