<svg id="Glyph" height="512" viewBox="0 0 64 64" width="512" xmlns="http://www.w3.org/2000/svg">
    <g fill="#223f97">
        <path
            d="m59.50041 16.26a3.00883 3.00883 0 0 0 3-3v-5.99a3.00238 3.00238 0 0 0 -3-3h-5.99a2.996 2.996 0 0 0 -3 3v1.72609h-10.9411c-1.08594-5.48826-9.04607-5.50748-10.1378.00015l-10.94111-.00015v-1.72609a2.996 2.996 0 0 0 -3-3h-5.99a3.00237 3.00237 0 0 0 -3 3v5.99a3.00883 3.00883 0 0 0 3 3h1.9961v10.67109c-5.48819 1.08591-5.50741 9.0461.00015 10.13781l-.00015 10.6711h-1.99609a3.00879 3.00879 0 0 0 -3 3v5.99a3.00234 3.00234 0 0 0 3 3h5.99a2.99594 2.99594 0 0 0 3-3v-1.72609h10.94109a5.16673 5.16673 0 0 0 10.13781 0h10.94111v1.72609a2.99594 2.99594 0 0 0 3 3h5.99a3.00234 3.00234 0 0 0 3-3v-5.99a3.00879 3.00879 0 0 0 -3-3h-1.9961v-10.67109a5.16674 5.16674 0 0 0 0-10.13782v-10.67109zm-3.9961 10.66937a5.1775 5.1775 0 0 0 .00014 10.14123l-.00014 10.6694h-1.99389a3.00234 3.00234 0 0 0 -3 3v2.26392h-10.93942a5.16693 5.16693 0 0 0 -10.14123 0h-10.93937v-2.26392a3.00234 3.00234 0 0 0 -3-3h-1.9939v-10.66938a5.16695 5.16695 0 0 0 0-10.14124v-10.66938h1.9939a3.00238 3.00238 0 0 0 3-3v-2.26391h10.93939a5.16694 5.16694 0 0 0 10.14123 0h10.9394v2.26391a3.00237 3.00237 0 0 0 3 3h1.99389z" />
        <path
            d="m34.50041 18.07a13.9471 13.9471 0 0 0 -13.93 13.93c.76668 18.47977 27.09613 18.47439 27.86-.00011a13.94712 13.94712 0 0 0 -13.93-13.92989zm4.17 14.93h-3.17v3.17a1 1 0 0 1 -2 0v-3.17h-3.17a1 1 0 0 1 0-2h3.17v-3.17a1 1 0 0 1 2 0v3.17h3.17a1.00011 1.00011 0 0 1 -.00002 2z" />
    </g>
</svg>