<svg clip-rule="evenodd" fill-rule="evenodd" stroke-linejoin="round" stroke-miterlimit="2"
    viewBox="0 0 510 510" xmlns="http://www.w3.org/2000/svg" fill="#223f97">
    <path
        d="m359.293 439.309c64.15-36.409 107.472-105.339 107.472-184.309 0-89.392-55.509-165.919-133.906-196.973-7.244-2.869-10.796-11.08-7.926-18.324 2.869-7.244 11.08-10.796 18.324-7.927 88.844 35.192 151.743 121.921 151.743 223.224 0 87.888-47.342 164.807-117.897 206.617l1.677.481c7.489 2.15 11.824 9.976 9.675 17.465-2.15 7.489-9.976 11.824-17.465 9.675l-36.827-10.57c-7.351-2.11-11.686-9.691-9.775-17.097l9.573-37.099c1.947-7.544 9.653-12.089 17.198-10.142 7.544 1.947 12.089 9.653 10.142 17.197zm-226.396-390.926-1.677-.481c-7.489-2.15-11.824-9.976-9.675-17.465 2.15-7.489 9.976-11.824 17.465-9.675l36.827 10.57c7.351 2.11 11.686 9.691 9.775 17.097l-9.573 37.099c-1.947 7.544-9.653 12.089-17.198 10.142-7.544-1.947-12.089-9.653-10.142-17.197l2.008-7.782c-64.15 36.409-107.472 105.339-107.472 184.309 0 89.392 55.509 165.919 133.906 196.973 7.244 2.869 10.796 11.08 7.926 18.324-2.869 7.244-11.08 10.796-18.324 7.927-88.844-35.192-151.743-121.921-151.743-223.224 0-87.888 47.342-164.807 117.897-206.617zm155.876 65.197c14.969 3.558 29.245 9.471 42.365 17.556l27.536-12.243 32.433 32.433-12.197 27.536c8.085 13.12 13.999 27.396 17.556 42.412l28.09 10.811v45.877l-28.09 10.811c-3.557 14.969-9.517 29.245-17.556 42.365l12.197 27.536-32.433 32.433-27.536-12.197c-13.074 8.085-27.396 13.999-42.365 17.556l-10.811 28.09h-45.877l-10.811-28.09c-15.016-3.557-29.292-9.517-42.412-17.556l-27.536 12.197-32.433-32.433 12.243-27.536c-8.085-13.074-13.998-27.396-17.602-42.365l-28.09-10.811v-45.877l28.09-10.811c3.604-15.016 9.517-29.292 17.602-42.412l-12.243-27.536 32.433-32.433 27.536 12.243c13.12-8.085 27.396-13.998 42.365-17.556l10.858-28.136h45.877zm-33.782 23.661c-65.061 0-117.75 52.689-117.75 117.75s52.69 117.814 117.75 117.814 117.814-52.754 117.814-117.814-52.753-117.75-117.814-117.75zm-36.899 212.666c-37.965-14.783-64.851-51.71-64.851-94.916 0-56.221 45.529-101.75 101.75-101.75 56.223 0 101.814 45.528 101.814 101.75 0 43.186-26.897 80.098-64.851 94.895v-65.949h32.207c1.992 0 3.728-1.125 4.564-2.925.835-1.832.546-3.825-.74-5.368l-69.137-81.416c-.996-1.157-2.314-1.768-3.825-1.768-1.543 0-2.828.611-3.825 1.768l-69.137 81.416c-1.286 1.543-1.575 3.536-.74 5.368.836 1.8 2.572 2.925 4.565 2.925h32.206z" />
</svg>