<svg id="Layer_1" viewBox="0 0 512 512" xmlns="http://www.w3.org/2000/svg" data-name="Layer 1"
    fill="#223f97">
    <path
        d="m496 261.313v22.88c0 3.615-2.356 6.668-5.851 7.583l-27.534 7.217-8.841 32.995 20.267 20.046c2.57 2.542 3.083 6.369 1.273 9.499l-22.906 39.602c-1.809 3.126-5.373 4.589-8.857 3.636l-27.457-7.518-24.155 24.155 7.518 27.456c.953 3.484-.51 7.049-3.636 8.857l-39.602 22.906c-3.13 1.81-6.956 1.298-9.499-1.273l-20.047-20.268-32.994 8.841-7.218 27.534c-.916 3.495-3.969 5.851-7.583 5.851h-45.759c-3.613 0-6.667-2.356-7.583-5.851l-7.218-27.534-32.994-8.841-20.047 20.268c-2.542 2.57-6.369 3.083-9.499 1.273l-39.602-22.906c-3.125-1.809-4.589-5.373-3.635-8.857l7.518-27.456-24.155-24.155-27.456 7.518c-3.483.953-7.049-.51-8.857-3.636l-22.906-39.602c-1.811-3.13-1.297-6.956 1.273-9.499l20.266-20.046-8.841-32.995-27.534-7.217c-3.495-.916-5.852-3.969-5.852-7.583v-22.88h91.982c0 81.747 66.27 148.016 148.017 148.016s148.017-66.269 148.017-148.016h91.983zm-460.442-31.456h63.903c6.899 0 12.5-5.592 12.5-12.5s-5.602-12.5-12.5-12.5h-49.243c7.346-37.568 24.675-71.322 48.963-98.618l11.459 11.459c2.44 2.44 5.641 3.659 8.836 3.659s6.402-1.219 8.841-3.659c4.883-4.893 4.883-12.799 0-17.682l-11.44-11.44c34.296-30.394 78.487-49.648 126.621-52.506v16.235c0 6.898 5.602 12.5 12.5 12.5s12.5-5.602 12.5-12.5v-16.235c48.134 2.859 92.324 22.112 126.621 52.506l-11.44 11.44c-4.883 4.883-4.883 12.789 0 17.682 2.44 2.44 5.636 3.659 8.841 3.659s6.397-1.219 8.836-3.659l11.459-11.459c24.29 27.295 41.618 61.05 48.964 98.618h-45.884c-6.898 0-12.5 5.597-12.5 12.5s5.602 12.5 12.5 12.5h60.544c3.587 0 7-1.538 9.376-4.233 2.372-2.685 3.471-6.267 3.023-9.829-14.71-116.927-114.808-205.108-232.838-205.108s-218.128 88.181-232.841 205.107c-.448 3.563.651 7.144 3.027 9.829 2.372 2.695 5.785 4.233 9.371 4.233zm298.118-132.363-29.983 76.421c30.898 16.896 51.855 49.699 51.855 87.397 0 54.979-44.569 99.548-99.548 99.548s-99.548-44.569-99.548-99.548 44.569-99.548 99.548-99.548c8.442 0 16.637 1.055 24.465 3.033l29.97-76.386c2.508-6.418 9.744-9.588 16.162-7.08s9.588 9.744 7.08 16.162zm-35.008 187.845c.4-11.512-5.819-22.171-16.627-28.524-7.863-4.618-15.913-6.527-23.694-8.388-2.531-.603-4.927-1.172-7.269-1.832-6.47-1.798-9.897-3.64-11.469-6.146-.4-.641-1.62-2.598.969-5.303 2.83-2.95 10.779-5.409 19.924-4.17 6.108.839 11.247 3.312 12.789 6.161 3.269 6.079 10.847 8.349 16.926 5.081 6.084-3.283 8.349-10.861 5.071-16.94-4.869-9.039-14.501-15.552-26.808-18.251v-6.657c0-6.904-5.602-12.5-12.5-12.5s-12.5 5.597-12.5 12.5v6.537c-7.742 1.639-15.282 5.042-20.932 10.929-9.617 10.022-11.28 24.431-4.141 35.861 6.532 10.461 17.302 14.573 25.955 16.993 2.805.776 5.549 1.427 8.195 2.059 6.542 1.557 12.182 2.902 16.819 5.631 2.81 1.649 4.382 3.871 4.305 6.089-.072 2.02-1.495 3.818-4.001 5.071-9.94 4.936-29.001 1.938-32.901-5.192-3.307-6.05-10.909-8.277-16.969-4.961-6.05 3.312-8.272 10.914-4.961 16.974 5.467 9.979 16.448 16.328 28.63 19.047v6.85c0 6.903 5.587 12.5 12.5 12.5s12.5-5.597 12.5-12.5v-6.33c4.43-.82 8.619-2.16 12.327-4.011 10.794-5.37 17.47-15.296 17.861-26.576z"
        fill-rule="evenodd" />
</svg>