<svg id="Layer_1" height="512" viewBox="0 0 66 66" width="512" xmlns="http://www.w3.org/2000/svg"
    fill="#223f97">
    <g>
        <path
            d="m8.3 27.1c2.2-9.3 9.5-16.6 18.8-18.8-.4-.8-.6-1.8-.6-2.8 0-.5 0-1 .2-1.4-11.3 2.5-20.1 11.3-22.6 22.5.4-.1.9-.2 1.4-.2 1 .1 2 .3 2.8.7z" />
        <path
            d="m57.6 27.1c.9-.4 1.8-.6 2.8-.6.5 0 1 .1 1.4.2-2.4-11.3-11.2-20.1-22.4-22.6.1.5.2.9.2 1.4 0 1-.2 2-.6 2.8 9.2 2.2 16.5 9.5 18.6 18.8z" />
        <path
            d="m8.3 38.9c-.8.4-1.8.6-2.8.6-.5 0-1-.1-1.4-.2 2.5 11.2 11.3 20 22.5 22.5-.1-.5-.2-.9-.2-1.4 0-1 .2-2 .6-2.8-9.2-2.1-16.5-9.4-18.7-18.7z" />
        <path
            d="m57.7 38.9c-2.2 9.3-9.5 16.6-18.8 18.8.4.9.6 1.8.6 2.8 0 .5 0 1-.2 1.4 11.2-2.5 20-11.3 22.5-22.5-.5.1-.9.2-1.4.2-.9-.1-1.9-.3-2.7-.7z" />
        <circle cx="60.5" cy="33" r="4.5" />
        <circle cx="5.5" cy="33" r="4.5" />
        <circle cx="33" cy="5.5" r="4.5" />
        <circle cx="33" cy="60.5" r="4.5" />
        <path
            d="m34.6 17.4c-.9-.7-2.3-.7-3.2 0-2.7 2.1-6 3.5-9.5 4-1.3.2-2.3 1.4-2.3 2.7v8.8c0 5.8 8.3 13 11.8 15.8.4.3 1 .5 1.6.5s1.1-.2 1.6-.5c3.5-2.8 11.8-10 11.8-15.8v-8.8c0-1.3-1-2.5-2.3-2.7-3.5-.5-6.8-1.9-9.5-4zm1.2 20.6h-5.6l1.1-6.2c-1-.6-1.6-1.6-1.6-2.8 0-1.8 1.5-3.3 3.3-3.3s3.3 1.5 3.3 3.3c0 1.2-.6 2.3-1.6 2.8z" />
    </g>
</svg>