<svg clip-rule="evenodd" fill-rule="evenodd" stroke-linejoin="round" stroke-miterlimit="2"
    viewBox="0 0 510 510" xmlns="http://www.w3.org/2000/svg" fill="#223f97">
    <path
        d="m360.918 183.263 45.482 9.804c6.81 1.468 13.893-.539 18.918-5.333 12.923 27.519 20.151 58.207 20.151 90.532 0 117.823-96.106 213.978-213.978 213.978-117.824 0-213.979-96.155-213.979-213.978 0-117.872 96.155-213.978 213.979-213.978 32.593 0 63.523 7.348 91.216 20.473-4.939 5.038-7.022 12.224-5.533 19.13l9.801 45.434-5.033 5.032c-25.395-18.6-56.678-29.6-90.451-29.6-84.503 0-153.509 68.952-153.509 153.509 0 84.503 69.006 153.509 153.509 153.509 84.557 0 153.509-69.006 153.509-153.509 0-33.525-10.839-64.598-29.193-89.892zm-16.576 16.577c15.534 22.268 24.658 49.315 24.658 78.426 0 75.695-61.766 137.509-137.509 137.509-75.696 0-137.509-61.814-137.509-137.509 0-75.744 61.813-137.509 137.509-137.509 29.359 0 56.618 9.28 78.994 25.057l-28.69 28.69c-1.746.148-3.485.585-5.147 1.324l-6.49 2.885c-3.165-1.54-6.417-2.888-9.742-4.037l-2.549-6.634c-2.375-6.181-8.313-10.261-14.935-10.261h-22.859c-6.614 0-12.547 4.069-14.928 10.24l-2.566 6.651c-3.329 1.15-6.587 2.499-9.756 4.042 0-.001-6.49-2.886-6.49-2.886-6.05-2.69-13.132-1.376-17.814 3.306l-16.16 16.16c-4.682 4.682-5.997 11.764-3.306 17.815l2.885 6.489c-1.544 3.171-2.896 6.431-4.05 9.767 0-.001-6.629 2.551-6.629 2.551-6.178 2.377-10.253 8.313-10.253 14.932v22.859c0 6.619 4.075 12.555 10.253 14.932l6.634 2.554c1.153 3.327 2.502 6.583 4.043 9.747 0-.001-2.883 6.483-2.883 6.483-2.691 6.05-1.376 13.133 3.306 17.815l16.16 16.16c4.676 4.676 11.747 5.994 17.794 3.315l6.509-2.883c3.172 1.544 6.435 2.897 9.772 4.051 0 0 2.546 6.617 2.546 6.617 2.378 6.177 8.314 10.253 14.933 10.253h22.859c6.619 0 12.555-4.076 14.932-10.253l2.546-6.616c3.334-1.151 6.597-2.501 9.767-4.045-.001 0 6.492 2.876 6.492 2.876 6.046 2.679 13.117 1.361 17.793-3.315l16.161-16.16c4.676-4.677 5.993-11.748 3.315-17.794l-2.883-6.509c1.541-3.166 2.892-6.421 4.045-9.747 0 0 6.623-2.549 6.623-2.549 6.177-2.377 10.253-8.313 10.253-14.932v-22.859c0-6.619-4.076-12.555-10.253-14.932l-6.612-2.545c-1.152-3.342-2.505-6.608-4.052-9.786.001.001 2.879-6.497 2.879-6.497.579-1.306.971-2.66 1.183-4.027zm-47.37 47.37c2.161 4.551 3.839 9.321 5.007 14.251l13.997 5.387v22.859l-13.997 5.387c-1.772 7.459-4.742 14.572-8.747 21.11l6.077 13.72-16.16 16.16-13.721-6.077c-6.514 4.028-13.651 6.975-21.109 8.748l-5.387 13.996h-22.859l-5.387-13.996c-7.482-1.773-14.595-4.743-21.133-8.748l-13.72 6.077-16.161-16.16 6.101-13.72c-4.029-6.515-6.975-13.651-8.771-21.11l-13.996-5.387v-22.859l13.996-5.387c1.796-7.482 4.742-14.595 8.771-21.133l-6.101-13.72 16.161-16.16 13.72 6.1c6.538-4.028 13.651-6.975 21.11-8.748l5.41-14.019h22.859l5.387 14.019c5.145 1.223 10.125 3.004 14.866 5.314l-25.724 25.724c-1.947-.292-3.941-.443-5.97-.443-22.031 0-39.872 17.84-39.872 39.871s17.841 39.894 39.872 39.894c22.03 0 39.894-17.863 39.894-39.894 0-1.742-.112-3.458-.328-5.141zm43.466-111.349-7.623-35.344c-.358-1.66.15-3.388 1.351-4.589l76.663-76.707c1.294-1.295 3.193-1.779 4.949-1.261 1.757.517 3.09 1.953 3.475 3.742l6.268 29.077zm119.024-51.141 29.079 6.268c1.789.385 3.225 1.718 3.743 3.474.517 1.756.033 3.654-1.261 4.949l-76.663 76.663c-1.201 1.201-2.929 1.71-4.589 1.352l-35.388-7.628zm-11.621-33.634c3.122-3.123 8.192-3.123 11.314 0 3.122 3.122 3.122 8.191 0 11.313l-221.766 221.766c-3.122 3.122-8.191 3.122-11.313 0s-3.122-8.192 0-11.314z" />
</svg>