<svg fill="none" height="128" viewBox="0 0 128 128" width="128" xmlns="http://www.w3.org/2000/svg">
    <g fill="#223f97">
        <path
            d="m32.7813 18.816c7.2816-5.4934 16.5414-9.81573 27.2186-9.816 11.6548-.00029 21.3044 2.5484 29.1809 7.545 7.8768 4.9968 13.8312 12.347 18.2522 21.7031.958 2.0264.015 3.9439-1.364 4.8829-1.348.9175-3.394 1.1227-5.008-.2245-7.123-5.9455-17.6963-13.1813-28.6402-16.4923l-.0107-.0032-.0107-.0034c-8.139-2.5623-26.9579-2.9841-38.8363 14.9542l1.9571.6116c3.0531.9542 3.8068 4.9283 1.3149 6.934l-15.2656 12.2869c-2.2121 1.7805-5.5233.7533-6.3393-1.9667l-5.61696-18.7231c-.8994-2.998 1.83766-5.8208 4.86196-5.0143l2.5196.6719.0025.0005.0015.0002h.0015s.0054-.0006.0119-.0033c.0135-.0056.0324-.0187.0481-.045 3.0347-5.0735 8.4468-11.8106 15.721-17.2985z" />
        <path d="m60 58c0-2.2091 1.7909-4 4-4s4 1.7909 4 4-1.7909 4-4 4-4-1.7909-4-4z" />
        <path clip-rule="evenodd"
            d="m42.9999 58.1053c0-11.1443 9.2191-20.1053 20.5-20.1053 11.281 0 20.5 8.961 20.5 20.1053 0 2.9697-1.0788 5.9288-2.5871 8.7162-1.5154 2.8009-3.5507 5.5832-5.6435 8.2233-1.0501 1.3246-2.1282 2.63-3.1738 3.8928l-.2296.2772c-.9683 1.1691-1.9041 2.299-2.7796 3.3942-1.911 2.3902-3.4245 4.4822-4.2861 6.2623-.3341.6903-1.0334 1.1287-1.8003 1.1287-.7668 0-1.4661-.4384-1.8002-1.1287-.8616-1.7801-2.3751-3.8721-4.2861-6.2623-.8752-1.0948-1.81-2.2235-2.778-3.3922l-.001-.0013-.0009-.001-.2293-.2769c-1.0456-1.2628-2.1237-2.5682-3.1738-3.8928-2.0928-2.6401-4.1281-5.4224-5.6436-8.2233-1.5082-2.7874-2.5871-5.7465-2.5871-8.7162zm21.0001-8.1053c-4.4183 0-8 3.5817-8 8s3.5817 8 8 8 8-3.5817 8-8-3.5817-8-8-8z"
            fill-rule="evenodd" />
        <path
            d="m111.77 69.2724c-.816-2.72-4.127-3.7472-6.34-1.9667l-15.2652 12.287c-2.4919 2.0056-1.7382 5.9798 1.3149 6.9339l1.957.6116c-11.8675 17.9218-30.663 17.5168-38.814 14.9608-10.7577-3.6742-21.8134-11.2843-29.1793-17.2551-1.5936-1.2917-3.593-1.1054-4.9249-.173-1.3605.9523-2.2143 2.8377-1.3146 4.8015 4.3961 9.5961 10.357 17.1416 18.2906 22.2746 7.9347 5.133 17.6892 7.753 29.5055 7.753 10.6772 0 19.937-4.323 27.2186-9.816 7.2744-5.488 12.6864-12.225 15.7214-17.2985.015-.0263.034-.0394.048-.045.006-.0027.012-.0033.012-.0033s.002-.0002.005.0007l2.52.6719c3.024.8065 5.761-2.0163 4.862-5.0143z" />
    </g>
</svg>