<svg id="Layer_1" enable-background="new 0 0 512 512" viewBox="0 0 512 512"
    xmlns="http://www.w3.org/2000/svg" fill="#fff">
    <path
        d="m350.8 502.7v8.3h-189.6v-8.3c0-13.4 10.8-24.2 24.1-24.2h141.4c13.3 0 24.1 10.8 24.1 24.2zm-133.8-66.2v30.5h77.9v-30.6h-77.9zm277.3-326.6v255.6c0 .2-.1.5-.1.8v37c0 11.9-9.7 21.6-21.6 21.6-101.9 0-329.4 0-433.3 0-11.9 0-21.6-9.7-21.6-21.6.1-13.8 0-270.5.1-293.5 0-11.9 9.6-21.6 21.6-21.6h433.3c11.9.1 21.6 9.8 21.6 21.7zm-18.3 2.5c0-3.2-2.6-5.7-5.7-5.7h-428.5c-3.2 0-5.7 2.5-5.7 5.7v254c0 3.2 2.6 5.7 5.7 5.7h428.5c3.2 0 5.7-2.6 5.7-5.7zm-428.5 5.7h417v242.5h-417zm46.5 180.6c0 5.7 1.1 25.7 1.4 31.8.1 3 2.6 5.4 5.7 5.4h305.5c3.1 0 5.6-2.4 5.7-5.4l1.1-23.9c6.2-89-70.6-169.3-159.7-167.7-85.7-1.7-161.3 74-159.7 159.8zm12.6 25.8c-19.1-147.3 151.4-233.5 255.8-127 33 35 43.8 80 38.8 127zm18.6-13.8h50c3.2.1 6-3 5.7-6.1-3.2-32.2 17.9-64.5 48.4-74.8l4.3 11c-38 20.4-23.6 79.4 20.2 79.5 23.3 0 42.3-19 42.3-42.3.6-28.9-30.2-50.3-57-39.7l-5.6-9.9c44.9-14.6 94.8 23.1 93.5 70.2.3 3.4-1.4 7.4 1.3 10.1 1.1 1.1 2.6 1.8 4.2 1.8h50c3 0 5.6-2.4 5.7-5.4 5.3-121.4-140.3-187.7-228-103.3-26.2 25.4-41.2 60.2-41.1 96.8.1 4.8-.3 12 6.1 12.1zm62.1-64.3-27.3-27.1c-19 22-29.3 51-29.3 80h38.5c0-19.1 6.4-37.9 18.1-52.9zm66.6 62.5c17 0 30.8-13.9 30.8-30.8.4-20.3-20.6-36-39.8-29.4l14.2 25.5c1.5 2.8.5 6.3-2.2 7.9-3 1.7-6.9.2-8.1-2.9l-10.8-27.6c-26.4 15.8-15.3 57.2 15.9 57.3zm-28.7-89.8-7.9-20.1 10.6 19.1c6.6-2 13.4-3.4 20.2-3.9v-38.6c-29.9 1.4-59.1 14.1-80.4 35.1l27.2 27.1c8.8-8.1 19-14.7 30.3-18.7zm114.8-8.3c-21.3-21-50.5-33.7-80.4-35.1v38.6c19.9 1.3 38.9 9.9 53.3 23.6 6.8-6.8 20.4-20.4 27.1-27.1zm-1.4 88.4h38.5v-.5c-.1-28.8-10.4-57.6-29.3-79.5-6.7 6.8-20.5 20.5-27.2 27.2 11.6 15 18.1 33.9 18 52.8zm-184-250.4c1.7-.7 5.2-3.2 7.2-3 2-.2 5.4 2.3 7.2 3-.5-3-2.1-7.8.8-10.1l3.6-3.6s-5-.7-5-.7c-3.7-.3-5.2-5-6.6-7.7 0 0-2.2 4.6-2.2 4.6-1.4 3.4-6.3 3.4-9.3 3.8l3.7 3.6c2.7 2.3 1 7 .6 10.1zm184.1 0c1.7-.8 5.2-3.2 7.2-3 2-.1 5.4 2.3 7.2 3-.4-3-2.1-7.7.7-10.1l3.7-3.6s-5-.7-5-.7c-3.7-.3-5.1-5-6.5-7.7-1.4 2.8-2.9 7.5-6.6 7.7l-5 .7 3.6 3.6c2.8 2.3 1.2 7 .7 10.1zm-97.9-14.3-2.5 14.3c1.8-.7 13.6-7.8 15.5-7.4 2-.4 13.6 6.7 15.5 7.4l-2.5-14.3c-.3-1.9.3-3.8 1.6-5.1l10.4-10.1-14.4-2.1c-1.8-.3-3.4-1.4-4.3-3.2l-6.4-13-6.4 13c-.9 1.7-2.5 2.9-4.3 3.2l-14.4 2.1 10.4 10.1c1.5 1.3 2.1 3.2 1.8 5.1z" />
</svg>