<svg id="Layer_1" viewBox="0 0 512 512" xmlns="http://www.w3.org/2000/svg" data-name="Layer 1"
    fill="#223f97">
    <path
        d="m348.841 60.342c-.409-4.855 3.127-9.162 7.969-9.706 53.418-6.005 46.888 77.379 38.468 110.461-1.619 6.361-2.386 11.944-2.541 18.505-.523 22.054-6.128 45.938-35.822 58.448-4.194 1.38-6.474 5.9-5.094 10.094 1.381 4.194 5.9 6.474 10.094 5.094 11.926-3.925 21.508-10.195 29.107-18.049 2.185 4.718 5.517 8.802 9.636 11.892-6.476 5.711-10.571 14.065-10.571 23.346 0 12.69 7.655 23.645 18.584 28.484-3.726 4.863-5.944 10.938-5.944 17.516 0 9.432 4.56 17.83 11.588 23.103-29.031 2.772-62.386 6.652-89.054 1.796-20.982-3.821-27.769-9.877-53.685-10.932.002-.143.005-.285.005-.428v-147.993c0-.823-.04-1.638-.115-2.442 69.45-10.394 83.339-48.402 77.376-119.189zm-103.427 109.464h-21.554c-6.692 0-12.166 5.475-12.166 12.167v147.993c0 6.692 5.474 12.167 12.166 12.167h21.554c6.692 0 12.166-5.475 12.166-12.167v-147.993c0-6.692-5.474-12.167-12.166-12.167zm220.164 131.751h-33.984c-8.178 0-14.869 6.691-14.869 14.869 0 8.179 6.691 14.869 14.869 14.869h33.984c8.178 0 14.869-6.691 14.869-14.869 0-8.179-6.691-14.869-14.869-14.869zm10.59-48.26h-54.954c-9.422 0-17.13 7.708-17.13 17.13 0 9.422 7.708 17.13 17.13 17.13h54.954c9.422 0 17.13-7.708 17.13-17.13 0-9.422-7.708-17.13-17.13-17.13zm6.917-48.26h-63.797c-9.422 0-17.13 7.708-17.13 17.13 0 9.422 7.708 17.13 17.13 17.13h63.797c9.422 0 17.13-7.708 17.13-17.13 0-9.422-7.708-17.13-17.13-17.13zm-54.433-14h47.864c9.422 0 17.13-7.708 17.13-17.13 0-9.422-7.708-17.13-17.13-17.13h-47.864c-9.422 0-17.13 7.708-17.13 17.13 0 9.422 7.708 17.13 17.13 17.13zm-310.572 64.932c0-76.568 62.071-138.639 138.639-138.639 5.092 0 10.117.282 15.066.817v-107.1h-55.87l-9.711 49.248-52.137 21.627-41.717-27.975-57.667 57.666 27.976 41.717-21.628 52.138-49.247 9.711v81.552l49.247 9.71 21.628 52.137-27.976 41.717 57.667 57.667 41.717-27.977 52.137 21.627 9.711 49.248h55.87v-107.07c-4.949.535-9.974.818-15.066.818-76.568 0-138.639-62.071-138.639-138.639zm310.279 183.705c0 33.752-27.528 61.279-61.28 61.279s-61.28-27.528-61.28-61.279 27.528-61.28 61.28-61.28 61.28 27.528 61.28 61.28zm-31.346-23.572c-2.728-2.738-7.167-2.738-9.896 0l-30.805 30.795-8.146-14.132c-1.943-3.345-6.223-4.492-9.573-2.559-3.34 1.933-4.492 6.213-2.559 9.563l12.72 22.028c1.089 1.885 2.989 3.157 5.148 3.441.304.039.612.063.911.063 1.851 0 3.63-.733 4.95-2.053l37.25-37.245c2.733-2.738 2.733-7.167 0-9.9z"
        fill-rule="evenodd" />
</svg>