<svg id="Glyph" height="512" viewBox="0 0 48 48" width="512" xmlns="http://www.w3.org/2000/svg"
    fill="#fff">
    <g>
        <path
            d="m41.75 33.57996v-1.57996c0-1.52002-1.22998-2.75-2.75-2.75h-14.25v-1.13c-.23999.08997-.48999.13-.75.13s-.51001-.04004-.75-.13v1.13h-14.25c-1.52002 0-2.75 1.22998-2.75 2.75v1.57996l-4.25 2.54004 5 3 5-3-4.25-2.54004v-1.57996c0-.69.56-1.25 1.25-1.25h14.25v2.82996l-4.25 2.54004 5 3 5-3-4.25-2.54004v-2.82996h14.25c.69 0 1.25.56 1.25 1.25v1.57996l-4.25 2.54004 5 3 5-3z" />
        <path
            d="m7.75 46.4245 4.63574-2.78143c.22608-.13526.36426-.3794.36426-.64307v-5.5769l-5 3.00159z" />
        <path d="m18.25 43c0 .26367.13818.50781.36426.64307l4.63574 2.78143v-5.99982l-5-3.00159z" />
        <path d="m1.25 43c0 .26367.13818.50781.36426.64307l4.63574 2.78143v-5.99982l-5-3.00159z" />
        <path
            d="m41.75 40.42438v6.00012l4.63574-2.78143c.22559-.13526.36426-.3794.36426-.64307v-5.57715z" />
        <path
            d="m24.75 46.4245 4.63574-2.78143c.22559-.13526.36426-.3794.36426-.64307v-5.57709l-5 3.00177z" />
        <path d="m35.25 43c0 .26367.13867.50781.36426.64307l4.63574 2.78143v-6.00012l-5-3.00153z" />
        <path
            d="m28.99847 16.12457-4.61273-2.76764c-.2373-.14258-.53418-.14258-.77148 0l-4.61255 2.76752 4.99829 3.00055z" />
        <path
            d="m29.75 23v-5.57709l-5 3.00177v5.99982l4.63574-2.78143c.22559-.13526.36426-.3794.36426-.64307z" />
        <path d="m18.25 23c0 .26367.13818.50781.36426.64307l4.63574 2.78143v-5.99982l-5-3.00159z" />
        <path
            d="m13 21.75h3.75v-4.75c0-.79004.41998-1.53003 1.09003-1.92999l5-3c.7066-.42401 1.61237-.42462 2.31989-.00006.00006.00006 5.00006 3.00006 5.00006 3.00006.67004.39996 1.09002 1.13995 1.09002 1.92999v4.75h3.75c1.84003 0 3.59003-.92004 4.66998-2.46002 1.09003-1.54999 1.36005-3.52002.73999-5.25-.87994-2.40998-3.21997-3.89002-5.66998-3.77997.09003-2.11005-.98999-4.16003-2.85999-5.24005-1.66998-.95996-3.66003-1.01996-5.35998-.20996-2.01001-3.13-6.06-4.42999-9.55005-2.94-3.34998 1.41998-5.20996 4.91998-4.60999 8.41998-2.58997.28998-4.72998 2.33002-5.06 5-.20001 1.60004.31 3.22998 1.41998 4.48999 1.11006 1.25 2.67005 1.97003 4.28004 1.97003z" />
    </g>
</svg>