<svg id="Layer_1" enable-background="new 0 0 53 53" viewBox="0 0 53 53"
    xmlns="http://www.w3.org/2000/svg" fill="#fff">
    <g>
        <path
            d="m45.0925293 26.9907227c.2004395.6914673.6262207 1.286499 1.2092285 1.6793823.4853516.328064 1.0700684.5198364 1.6987305.5198364 1.6767578 0 3.0400391-1.3632812 3.0400391-3.0400391 0-.8892822-.3901367-1.6826782-1.0004883-2.2390137-.5400391-.4934082-1.251709-.8031616-2.0405273-.8031616-1.4528809 0-2.6621094 1.026062-2.9638672 2.3829956h-2.9951172v-4.7597656h4.4111328c1.2685547 0 2.2998047-1.0322266 2.2998047-2.3007812v-3.517334c1.0668945-.2727661 1.9003906-1.1035156 2.1787109-2.1680298.0649414-.2470093.1103516-.5015869.1103516-.7687378 0-1.6767578-1.3632812-3.0400391-3.0400391-3.0400391-.4199219 0-.8200684.0856934-1.184082.2402344-1.0917969.4611206-1.8569336 1.5412598-1.8569336 2.8014526 0 1.4203491.9763184 2.6019897 2.2919922 2.9364014v3.5160522c0 .4414062-.3583984.8007812-.7998047.8007812h-4.4111328v-14.1591796c0-.8808594-.7167969-1.5976562-1.5986328-1.5976562h-7.3232422v1.5576172c0 1.1123047-.9042969 2.0166016-2.0166016 2.0166016h-8.8740234c-1.1123047 0-2.0166016-.9042969-2.0166016-2.0166016v-1.5576172h-7.3232422c-.8818359 0-1.5986328.7167969-1.5986328 1.5976562v13.8544922h-4.9492188c-.3261719 0-.5908203-.2646484-.5908203-.5898438v-3.4229736c1.3146973-.3352051 2.2900391-1.5161743 2.2900391-2.93573 0-.0001831 0-.0003662 0-.0005493 0-.0003662 0-.0007324 0-.0010986 0-.2858887-.0522461-.5571289-.1262207-.8195801-.1972656-.7004395-.6262207-1.3034668-1.2148438-1.7005005-.4851074-.328186-1.0700683-.5199584-1.6989746-.5199584-.4543457 0-.8818359.1071777-1.2692871.2868042-1.0432129.4813843-1.770752 1.5296631-1.770752 2.7548828 0 1.4196167.9753418 2.600708 2.2900391 2.935791v3.4229126c0 1.1523438.9375 2.0898438 2.0908203 2.0898438h4.9492188v5.2773438h-3.2949219c-.2172852-1.4603271-1.4680176-2.5958862-2.9951172-2.5958862-1.6801758 0-3.0400391 1.3699951-3.0400391 3.039978 0 1.0507202.5319824 1.9760742 1.3415527 2.5220337.4853516.3283081 1.0698242.5202026 1.6984863.5202026.838623 0 1.5986328-.3409424 2.1489258-.8914795.2460938-.2459106.4421387-.5386353.5927734-.8569946.0178223-.0377808.0429688-.0710449.0593262-.1096191.017334-.0408936.0244141-.0864868.0397949-.1282349h3.4492188v4.7607422h-4.9492187c-1.1533203 0-2.0908203.9375-2.0908203 2.0898438v3.4251709c-.5356445.1372681-1.0187988.4071655-1.3981934.7868042-.5510254.5501709-.8918457 1.3106689-.8918457 2.1515503 0 1.6699829 1.3598633 3.039978 3.0400391 3.039978 1.6799316 0 3.0400391-1.3699951 3.0400391-3.039978 0-.0004272 0-.0008545 0-.0012817 0-.0006714 0-.0012207 0-.0018921 0-1.4164429-.9770508-2.5991211-2.2900391-2.9353027v-3.4250488c0-.3251953.2646484-.5898438.5908203-.5898438h4.9492188v14.4628906c0 .8818359.7167969 1.5986328 1.5986328 1.5986328h27.5537109c.8818359 0 1.5986328-.7167969 1.5986328-1.5986328v-14.1582033h4.4111328c.4414062 0 .7998047.3583984.7998047.7998047v2.9100952c-.5361328.137146-1.0200195.4071045-1.3999023.7869263-.5512695.5501709-.8920898 1.310791-.8920898 2.1518555 0 1.6699829 1.3598633 3.039978 3.0400391 3.039978 1.0405273 0 1.956543-.5272217 2.5046387-1.3242188.3371582-.489502.536377-1.0807495.536377-1.7189331 0-1.4161377-.9765625-2.5985107-2.2890625-2.9349976v-2.9107056c0-1.2685547-1.03125-2.2998047-2.2998047-2.2998047h-4.4111328v-5.2783203h3.0520018zm-29.2121582 6.133789h1.1611328v-1.6201172c0-.9765625.7792969-1.7705078 1.7363281-1.7705078h.2578125v-7.1650391h-1.0380859c-.5957031 0-1.1152344-.3427734-1.3583984-.8955078-.2441406-.5576172-.1376953-1.2060547.2724609-1.6523438l8.6679688-9.4150391c.5576172-.6074219 1.6113281-.6083984 2.1708984 0l8.6679688 9.4150391c.4101562.4462891.5166016 1.0947266.2724609 1.6523438-.2431641.5527344-.7626953.8955078-1.3583984.8955078h-1.0380859v7.1650391h.2578125c.9570312 0 1.7363281.7939453 1.7363281 1.7705078v1.6201172h1.1611328c.4140625 0 .75.3359375.75.75s-.3359375.75-.75.75h-1.9111328-17.7470704-1.9111328c-.4140625 0-.75-.3359375-.75-.75s.3359375-.75.75-.75zm5.5888672 11.3896485c0 .7568359-.6162109 1.3720703-1.3730469 1.3720703h-4.6845703c-.7568359 0-1.3730469-.6152344-1.3730469-1.3720703v-4.6855469c0-.7568359.6162109-1.3730469 1.3730469-1.3730469h4.6845703c.7568359 0 1.3730469.6162109 1.3730469 1.3730469zm11.9863281.1640625h-7.8554688c-.4140625 0-.75-.3359375-.75-.75s.3359375-.75.75-.75h7.8554688c.4140625 0 .75.3359375.75.75s-.3359375.75-.75.75zm4.5888672-3.5136719h-12.4443359c-.4140625 0-.75-.3359375-.75-.75s.3359375-.75.75-.75h12.4443359c.4140625 0 .75.3359375.75.75s-.3359375.75-.75.75z" />
        <path
            d="m22.2280273 5.5483398h8.8740234c.2851562 0 .5166016-.2314453.5166016-.5166016v-1.5576171h-9.9072266v1.5576172c.0000001.2851562.2314454.5166015.5166016.5166015z" />
        <path
            d="m25.105957 26.4526367v3.2792969h3.1181641v-3.2792969c0-.9042969-.6992188-1.640625-1.5585938-1.640625-.8603515 0-1.5595703.7363281-1.5595703 1.640625z" />
        <path
            d="m32.7944336 29.7338867v-7.1650391h-12.2587891v7.1650391h3.0703125v-3.28125c0-1.7314453 1.3720703-3.140625 3.0585938-3.140625 1.6875 0 3.0595703 1.4091797 3.0595703 3.140625v3.28125z" />
        <path
            d="m34.7885742 31.5043945c0-.1494141-.1064453-.2705078-.2363281-.2705078h-1.0078125-13.7587891-1.0078125c-.1298828 0-.2363281.1210938-.2363281.2705078v1.6201172h16.2470703z" />
        <path d="m35.3334961 21.0688477-8.6865234-9.4472657-8.631836 9.4150391 17.3173828.0322266z" />
        <path d="m15.539 39.956h4.431v4.431h-4.431z" />
    </g>
</svg>