<?xml version="1.0" encoding="iso-8859-1"?>
<!-- Generator: Adobe Illustrator 19.0.0, SVG Export Plug-In . SVG Version: 6.00 Build 0)  -->
<svg version="1.1" id="Capa_1" xmlns="http://www.w3.org/2000/svg"
	xmlns:xlink="http://www.w3.org/1999/xlink" x="0px" y="0px"
	viewBox="0 0 409.6 409.6" style="enable-background:new 0 0 409.6 409.6;" xml:space="preserve"
	fill="#223f97">
<g>
	<g>
		<circle cx="204.8" cy="204.8" r="25.6"/>
	</g>
</g>
<g>
	<g>
		<path d="M204.8,0C147.937,0,96.799,23.45,59.735,60.887V17.065H25.6V102.4c0,9.436,7.665,17.065,17.065,17.065H128V85.366
			l-44.636-0.031c30.971-31.468,73.8-51.2,121.436-51.2c94.249,0,170.665,76.416,170.665,170.665S299.049,375.465,204.8,375.465
			S34.135,299.049,34.135,204.8H0c0,113.101,91.699,204.8,204.8,204.8s204.8-91.699,204.8-204.8S317.901,0,204.8,0z"/>
	</g>
</g>
<g>
	<g>
		<path d="M204.8,68.265c-17.014,0-33.234,3.251-48.266,8.95v55.168l20.065,20.065c3.517-1.9,7.235-3.436,11.136-4.613v-28.37h34.13
			v28.37c3.901,1.178,7.619,2.714,11.136,4.613l20.065-20.05l24.151,24.136l-20.065,20.065c1.9,3.517,3.436,7.235,4.613,11.136
			h28.37v34.13h-28.37c-1.178,3.901-2.714,7.598-4.613,11.136l20.065,20.065l-24.151,24.136l-20.05-20.05
			c-3.528,1.9-7.25,3.436-11.151,4.613v28.37h-34.13v-28.37c-3.901-1.178-7.619-2.714-11.151-4.613l-20.05,20.05l-24.136-24.136
			l20.05-20.065c-1.899-3.517-3.435-7.235-4.613-11.136h-28.37v-34.13h28.37c1.178-3.901,2.714-7.619,4.613-11.136l-20.05-20.065
			H77.199c-5.663,15.032-8.934,31.253-8.934,48.266c0,75.412,61.133,136.535,136.535,136.535
			c75.412,0,136.535-61.123,136.535-136.535C341.335,129.398,280.212,68.265,204.8,68.265z"/>
	</g>
</g>
<g>
</g>
<g>
</g>
<g>
</g>
<g>
</g>
<g>
</g>
<g>
</g>
<g>
</g>
<g>
</g>
<g>
</g>
<g>
</g>
<g>
</g>
<g>
</g>
<g>
</g>
<g>
</g>
<g>
</g>
</svg>