<svg id="glphy" viewBox="0 0 64 64" xmlns="http://www.w3.org/2000/svg" fill="#223f97">
    <path
        d="m25.66964 39.55008a5.94507 5.94507 0 1 0 5.94006-5.94008 5.94083 5.94083 0 0 0 -5.94006 5.94008z" />
    <path
        d="m36.04976 46.44016a.97927.97927 0 0 0 -.67.1 8.1269 8.1269 0 0 1 -7.55011 0 .94367.94367 0 0 0 -.66-.1 9.99886 9.99886 0 0 0 -8.12006 9.82012v2.19a1.003 1.003 0 0 0 1 1h23.12023a1.003 1.003 0 0 0 1-1v-2.19a9.99892 9.99892 0 0 0 -8.12006-9.82012z" />
    <path
        d="m47.28982 33.86a12.71012 12.71012 0 1 0 -12.71009-12.71013 12.72884 12.72884 0 0 0 12.71009 12.71013zm-4.48-6.82007-1.61005 1.61a1.00185 1.00185 0 0 1 -1.41 0 .9959.9959 0 0 1 0-1.41l1.6101-1.61a.997.997 0 0 1 1.41 1.41zm5.48 3.72009a1 1 0 0 1 -2.00006 0v-2.28002a1 1 0 0 1 2.00006 0zm8.62005-10.61017a1 1 0 0 1 0 2h-2.27987a1 1 0 1 1 0-2zm-5.14-4.9 1.61-1.61a1.0041 1.0041 0 0 1 1.42005 1.42l-1.61005 1.61a1.04249 1.04249 0 0 1 -.71.29 1.02412 1.02412 0 0 1 -.71-.29 1.00788 1.00788 0 0 1 .00005-1.42zm0 10.38012a1.00792 1.00792 0 0 1 1.42 0l1.61013 1.61003a.99581.99581 0 0 1 0 1.41 1.0141 1.0141 0 0 1 -1.42005 0l-1.61-1.61a.99581.99581 0 0 1 -.00003-1.41zm-5.4801-14.10022a1 1 0 0 1 2.00006 0v2.28009a1 1 0 0 1 -2.00006 0zm0 8.62012v-2.69006a1 1 0 0 1 2.00006 0v3.69006a1.00289 1.00289 0 0 1 -1.00006 1h-3.97a1 1 0 0 1 0-2zm-6.50006-6.51a.99588.99588 0 0 1 1.41 0l1.61005 1.61a1.00055 1.00055 0 0 1 -1.41 1.42l-1.6101-1.61a1.008 1.008 0 0 1 .0001-1.42001zm-3.11 7.51a1.003 1.003 0 0 1 1-1h2.28a1 1 0 0 1 0 2h-2.28a1.00291 1.00291 0 0 1 -.99994-1z" />
    <path
        d="m5.65945 21.22989h1.2a10.25457 10.25457 0 0 0 .82 1.97l-.85.85a1.56321 1.56321 0 0 0 0 2.21008l2.39 2.39a1.57534 1.57534 0 0 0 2.2201 0l.84-.84a10.73027 10.73027 0 0 0 1.98.82v1.19a1.5642 1.5642 0 0 0 1.56 1.57007h3.39008a1.5642 1.5642 0 0 0 1.56-1.57007v-1.18997a10.73406 10.73406 0 0 0 1.98-.82l.85.84a1.56314 1.56314 0 0 0 2.21 0l2.39-2.39a1.56334 1.56334 0 0 0 0-2.21008l-.84-.85a10.88673 10.88673 0 0 0 .81-1.97h1.20007a1.57919 1.57919 0 0 0 1.57-1.57v-3.39011a1.57061 1.57061 0 0 0 -1.57-1.56h-1.20006a10.33748 10.33748 0 0 0 -.82-1.98l.85-.84a1.56334 1.56334 0 0 0 0-2.21008l-2.39-2.4a1.58948 1.58948 0 0 0 -2.21 0l-.85.85a10.72514 10.72514 0 0 0 -1.98-.82v-1.2a1.562 1.562 0 0 0 -1.56-1.56006h-3.3901a1.562 1.562 0 0 0 -1.56 1.56006v1.21a10.20784 10.20784 0 0 0 -1.97.81l-.85-.84a1.58789 1.58789 0 0 0 -2.2201-.01l-2.39 2.4a1.56321 1.56321 0 0 0 0 2.21008l.85.84a10.34192 10.34192 0 0 0 -.82 1.98h-1.2a1.562 1.562 0 0 0 -1.56 1.56v3.39007a1.57061 1.57061 0 0 0 1.56001 1.57001zm18.82019-3.25995a6.96506 6.96506 0 0 1 -13.93012-.00012c.32788-9.20593 13.60114-9.21393 13.93012.00012z" />
    <path d="m17.51961 22.9299a4.96 4.96 0 1 0 -4.97009-4.96008 4.972 4.972 0 0 0 4.97009 4.96008z" />
    <path
        d="m15.20956 47.39017v-8.49012h2.07a1.00921 1.00921 0 0 0 .73-1.68l-6.14007-6.6a1.02009 1.02009 0 0 0 -1.46 0l-6.14 6.6a1.003 1.003 0 0 0 .73 1.68005h2.07v4.7801a8.18755 8.18755 0 0 0 7.9 8.42h2.55011a.99236.99236 0 0 0 .7-1.7z" />
    <path
        d="m57.74 48.47012h-2.07v-4.78a8.18762 8.18762 0 0 0 -7.9-8.42017h-2.55019a.99241.99241 0 0 0 -.7 1.70007l3.01 3.01v8.49005l-2.07.00006a1.00969 1.00969 0 0 0 -.7301 1.68l6.14007 6.60009a.99267.99267 0 0 0 1.46 0l6.14-6.60009a1.00352 1.00352 0 0 0 -.72978-1.68001z" />
</svg>