<svg height="512" viewBox="0 0 512 512" width="512" xmlns="http://www.w3.org/2000/svg" fill="#fff">
    <g id="Layer_5" data-name="Layer 5">
        <path
            d="m207 363.5v3.156a102.881 102.881 0 0 1 -10.269 44.844h116.538a102.881 102.881 0 0 1 -10.269-44.844v-3.156z" />
        <path
            d="m471 219.5a39.955 39.955 0 0 1 8 .809v-168.809a24.027 24.027 0 0 0 -24-24h-400a24.027 24.027 0 0 0 -24 24v232h304v-24a40.047 40.047 0 0 1 40-40zm-304 16h-112a8 8 0 0 1 0-16h112a8 8 0 0 1 0 16zm-96-40a8 8 0 0 1 8-8h64a8 8 0 0 1 0 16h-64a8 8 0 0 1 -8-8zm40-24a64 64 0 1 1 64-64 64.073 64.073 0 0 1 -64 64zm200 64h-112a8 8 0 0 1 0-16h112a8 8 0 0 1 0 16zm-96-40a8 8 0 0 1 8-8h64a8 8 0 0 1 0 16h-64a8 8 0 0 1 -8-8zm40-24a64 64 0 1 1 64-64 64.073 64.073 0 0 1 -64 64zm80-64a64 64 0 1 1 64 64 64.073 64.073 0 0 1 -64-64zm24 88a8 8 0 0 1 8-8h64a8 8 0 0 1 0 16h-64a8 8 0 0 1 -8-8z" />
        <path
            d="m447 107.5a48 48 0 1 0 -48 48 48.052 48.052 0 0 0 48-48zm-56 24a7.971 7.971 0 0 1 -5.656-2.344l-16-16a8 8 0 0 1 11.312-11.312l10.344 10.344 26.344-26.344a8 8 0 0 1 11.312 11.312l-32 32a7.971 7.971 0 0 1 -5.656 2.344z" />
        <path
            d="m255 59.5a48 48 0 1 0 48 48 48.052 48.052 0 0 0 -48-48zm29.656 37.656-32 32a8 8 0 0 1 -11.312 0l-16-16a8 8 0 0 1 11.312-11.312l10.344 10.344 26.344-26.344a8 8 0 0 1 11.312 11.312z" />
        <path
            d="m31 323.5a24.027 24.027 0 0 0 24 24h280v-48h-304zm200-8h48a8 8 0 0 1 0 16h-48a8 8 0 0 1 0-16z" />
        <path
            d="m111 59.5a48 48 0 1 0 48 48 48.052 48.052 0 0 0 -48-48zm29.656 37.656-32 32a8 8 0 0 1 -11.312 0l-16-16a8 8 0 0 1 11.312-11.312l10.344 10.344 26.344-26.344a8 8 0 0 1 11.312 11.312z" />
        <path
            d="m351 427.5h96a8 8 0 0 1 0 16h-96v24a24.027 24.027 0 0 0 24 24h96a24.027 24.027 0 0 0 24-24v-24h-16a8 8 0 0 1 0-16h16v-144h-144zm88 48h-32a8 8 0 0 1 0-16h32a8 8 0 0 1 0 16zm-16-176a40 40 0 1 1 -40 40 40.047 40.047 0 0 1 40-40zm-32 96h64a8 8 0 0 1 0 16h-64a8 8 0 0 1 0-16z" />
        <path d="m471 235.5h-96a24.027 24.027 0 0 0 -24 24v8h144v-8a24.027 24.027 0 0 0 -24-24z" />
        <circle cx="423" cy="339.5" r="24" />
        <path d="m159 443.5h176v-16h-160a16.016 16.016 0 0 0 -16 16z" />
    </g>
</svg>