<svg id="Layer_1" enable-background="new 0 0 512 512" viewBox="0 0 512 512"
    xmlns="http://www.w3.org/2000/svg" fill="#223f97">
    <path
        d="m85.7 110.8c-9.2-27.1-1.5-54.9 25.2-61.6 1.7-.4 3.1-1.7 3.7-3.3.5-1.3 5.5-12.6 23.5-20.6 18.7-9.4 45.2 3.3 55.8 14 18.6 17.2 23.9 42.6 15.1 70.7-7.8-9.8-20.6-20.7-33.4-21.5-18.3 5.5-38.1 5.4-56.4 0-1.8-.4-3.6 0-5.2.9-10.3 4.8-22.3 11.9-28.3 21.4zm44.9 83.7-4.3 15.3c12.8 8.2 29.7 8.2 42.5 0l-4.3-15.3c-11.2 2.9-22.9 2.9-33.9 0zm73.8-63.5c.2-1.5 1.2-5.7.5-7-5.9-11.2-15.9-19.9-27.8-24.3-19.2 5.4-39.9 5.4-59.2.1-11.2 4.6-21.8 13.8-27.9 24.3 3.8 77.3 102.1 83 114.4 6.9zm18 137.1v-41.8c0-.6.2-.9.4-1.3 0-.1.1-.1.1-.2.4-.5 1-.7 1.6-.9l32.4-3.3c2.2-.2 4.1-1.8 4.8-4 1.9-6.6 4.6-13.2 8.1-19.8 1.1-1.9.8-4.4-.6-6.1l-20.5-25.2c-.7-.8-.7-2.3.1-3l29.7-29.7c.7-.8 2.1-.8 3-.1l25.2 20.5c1.8 1.4 4.2 1.6 6.2.6 6.1-3.3 12.7-6.1 19.8-8.2 2.2-.7 3.7-2.5 4-4.8l3.4-32.4c.1-1.2 1.1-1.9 2.3-1.9h41.6c1.2 0 2.2.8 2.3 1.9l3.3 32.4c.2 2.2 1.8 4.1 4 4.8 7.1 2.1 13.8 4.8 19.8 8.2 2 1.1 4.5.8 6.2-.6l25.3-20.5c.9-.7 2.3-.7 3.1.2l29.6 29.5c.7.8.8 2.2.1 3l-20.7 25.4c-1.4 1.7-1.7 4.2-.6 6.2 3.3 6.2 6.1 12.9 8.2 19.8.7 2.2 2.5 3.7 4.7 3.9l32.3 3.3c1.2.2 2.1 1.1 2.1 2.3v41.8c0 1.1-.9 2.1-2.1 2.2l-32.4 3.3c-2.2.3-4.1 1.8-4.7 4-1.9 6.4-4.9 13.7-8.3 20-1.1 1.9-.8 4.4.6 6.1l20.6 25.3c.7.8.6 2.2-.3 3l-29.5 29.5c-.8.8-2.1.9-3 .1l-25-20.6c-1.8-1.4-4.2-1.6-6.2-.6-6.1 3.3-12.8 6.1-19.9 8.3-2.1.7-3.7 2.5-3.9 4.7l-3.3 32.2c-.1 1-.9 2.1-2.2 2.2h-41.8c-1.3-.1-2.1-1.1-2.2-2.1l-3.4-32.3c-.2-2.2-1.7-4.1-3.9-4.7-7-2.2-13.6-5-19.9-8.3-2-1.1-4.4-.8-6.2.6l-25.2 20.5c-.9.7-2.2.7-3.1-.1-.1 0-29.5-29.5-29.6-29.5-.7-.8-.6-2.1-.2-3.1l20.5-25.2c3.4-4.1-1.1-8.7-2.6-12.5-2.1-4.7-3.8-9.5-5-13.5-.6-2.2-2.5-3.8-4.8-4.1l-32.6-3.3c-.8 0-1.7-1-1.7-2.1zm71.1 48.1c42.3 44.2 118.5 36.4 151.3-14.8 40.9-59.4 1.2-145.1-71.7-151.8-91.3-9.3-143.8 102.3-79.6 166.6zm-17.3-69c1.5-94.9 129.3-120 167.1-33.8 24.4 55.5-18.6 121.6-80.1 120.7-48 0-87-38.9-87-86.9zm153.3 5.5h9.9c7.3-.1 7.3-11 0-11.1h-9.9c-7.3.2-7.3 11 0 11.1zm-60.8 60.9c-.1-7.3-11-7.3-11.1 0v9.9c.1 7.3 11 7.3 11.1 0zm-11.1-132.7c0 7.3 11.1 7.3 11.1 0v-9.9c0-7.3-11.1-7.3-11.1 0zm5.2 80.6 10.4 25.9c1.2 2.9 4.5 4.3 7.2 3.1 2.8-1.1 4.2-4.3 3.1-7.2l-10.4-25.9c5-4.6 5.6-13.5 1.2-18.8l20.1-35.5c3.5-6.4-6.1-11.8-9.7-5.5l-20 35.4c-19.6-1.8-21.5 27.5-1.9 28.5zm-66.1-19.9h-9.9c-7.3.1-7.3 11 0 11.1h9.9c7.3-.1 7.3-10.9 0-11.1zm-221.8 100.8c0-7.3 11.1-7.3 11.1 0v45.5h122.9v-45.5c0-3.1 2.4-5.6 5.6-5.6 3.1 0 5.6 2.5 5.6 5.6v45.5h61.3l-2.9-14.7c-3-.5-5.8-1.7-7.9-3.9l-29.6-29.5c-4.9-4.8-5.2-12.8-.9-17.9l18.3-22.4c-2.5-4.8-4.5-10.2-6.2-15.1l-28.8-2.9c-6.7-.6-12.1-6.4-12.1-13.3v-41.8c.1-1.9.5-3.9 1.3-5.7-9.2-3.9-19.1-6.1-29.2-6.3l-12 6.7c-14.8 8.5-32.9 8.3-47.8 0l-12-6.7c-36.5.5-69.5 28.2-76.2 64.1l-21.8 109.4h61.3zm-73.1 56.7v18h508.3v-18zm21.6 90.9h465.2v-61.9h-465.2z" />
</svg>